<svg width="42" height="41" viewBox="0 0 42 41" fill="none" xmlns="http://www.w3.org/2000/svg">
<path d="M31.1988 40.7953C31.2671 35.2013 35.8378 30.6988 41.4318 30.6988H41.5V0C41.4659 0 41.4659 0 41.4318 0C18.8511 0 0.56822 18.2488 0.5 40.7953H31.1988Z" fill="#F44336"/>
<path d="M31.1989 40.7951C31.2671 35.2011 35.8378 30.6986 41.4318 30.6986H41.5V5.11621C41.3636 5.11621 41.2271 5.11621 41.0907 5.11621C21.3411 5.11621 5.34361 21.0796 5.27539 40.7951H31.1989Z" fill="#FF9800"/>
<path d="M31.1983 40.7948C31.2665 35.2008 35.8372 30.6983 41.4313 30.6983H41.4995V10.2324C41.4654 10.2324 41.4654 10.2324 41.4313 10.2324C24.5128 10.2324 10.8006 23.9105 10.7324 40.7948H31.1983Z" fill="#FFEB3B"/>
<path d="M31.199 40.7955C31.2672 35.2015 35.838 30.699 41.432 30.699H41.5002V15.3496C41.4661 15.3496 41.4661 15.3496 41.432 15.3496C27.3446 15.3496 15.9178 26.7423 15.8496 40.7955H31.199Z" fill="#8BC34A"/>
<path d="M31.1988 40.7953C31.267 35.2013 35.8377 30.6988 41.4317 30.6988H41.4999V20.4658C41.4658 20.4658 41.4658 20.4658 41.4317 20.4658C30.1755 20.4658 21.034 29.539 20.9658 40.7953H31.1988Z" fill="#2196F3"/>
<path d="M31.1985 40.795C31.2667 35.201 35.8374 30.6985 41.4314 30.6985H41.4997V25.582C41.4656 25.582 41.4656 25.582 41.4314 25.582C33.0063 25.582 26.1503 32.3699 26.082 40.795H31.1985Z" fill="#673AB7"/>
<path opacity="0.2" d="M1.86439 40.7953C1.8985 30.2895 6.02579 20.3977 13.4617 12.9617C20.9318 5.49168 30.8577 1.36439 41.4318 1.36439H41.5V0C41.4659 0 41.4659 0 41.4318 0C18.8511 0 0.56822 18.2488 0.5 40.7953H1.86439Z" fill="#424242"/>
<path opacity="0.2" d="M31.5401 40.7956C31.6083 35.4062 36.0085 31.0402 41.3978 31.0402H41.4661V29.6758C41.432 29.6758 41.432 29.6758 41.3978 29.6758C35.224 29.6758 30.2439 34.6217 30.1416 40.7956H31.5401Z" fill="#424242"/>
</svg>
