<svg width="42" height="44" viewBox="0 0 42 44" fill="none" xmlns="http://www.w3.org/2000/svg">
<path d="M20.0267 39.3198C18.5261 38.1156 4.59204 24.5652 4.43629 24.417C3.82088 23.8016 3.4334 23.1634 3.32703 22.5784C3.21687 21.9706 3.40301 21.4388 3.89686 20.9449C4.35652 20.4852 4.91874 20.2421 5.52275 20.2421C6.25973 20.2421 7.01569 20.5916 7.6463 21.226L13.9637 27.2965C14.0739 27.4029 14.2183 27.4561 14.3588 27.4561C14.507 27.4561 14.6513 27.3991 14.7615 27.2889C14.9818 27.0686 14.9818 26.7115 14.7653 26.4912L4.67941 16.0748C3.66893 15.0643 3.19407 13.5182 4.3945 12.3178C4.85416 11.8581 5.41639 11.615 6.0204 11.615C6.75737 11.615 7.51334 11.9645 8.14394 12.5989L18.4616 22.6582C18.5717 22.7645 18.7161 22.8215 18.8604 22.8215C19.0048 22.8215 19.1529 22.7645 19.2631 22.6544C19.4834 22.434 19.4872 22.077 19.2669 21.8528L6.87514 9.14955C6.30151 8.57593 5.95582 7.88834 5.89504 7.21975C5.83806 6.53976 6.07738 5.90916 6.59022 5.39631C7.04988 4.93666 7.61211 4.69353 8.21612 4.69353C8.95309 4.69353 9.70906 5.04302 10.3397 5.67363L22.9784 17.997C23.0885 18.1034 23.2329 18.1604 23.3772 18.1604C23.5216 18.1604 23.6697 18.1034 23.7799 17.9932C24.0002 17.7729 24.004 17.4158 23.7837 17.1917L14.6057 7.75918C14.0283 7.18176 13.6826 6.49797 13.6256 5.82938C13.5687 5.14939 13.808 4.51879 14.3208 4.00594C14.7805 3.54629 15.3427 3.30316 15.9467 3.30316C16.6837 3.30316 17.4397 3.65265 18.0703 4.28706C21.436 7.59204 30.2227 16.2344 30.519 16.5535C31.6473 17.3322 31.8752 16.1546 31.9322 15.391C31.9968 14.5021 30.9787 11.3985 31.5713 8.60632C32.5666 4.89487 35.4347 5.50268 35.4993 5.53307C37.072 6.27004 36.7719 7.3717 36.2135 9.58642L36.1565 10.0233C35.5715 12.918 39.5906 21.4957 39.8869 22.1377C41.4634 25.5871 43.2793 32.5807 37.2657 38.5942C30.6748 45.1852 22.5149 41.8081 20.0267 39.3198Z" fill="url(#paint0_radial_145_2800)"/>
<path d="M28.4833 43.0203C24.4413 43.0203 21.0034 41.0867 19.6472 39.7457C18.4278 38.7504 10.7314 31.3199 4.46332 25.238C4.2088 24.9911 4.06064 24.8505 4.04545 24.8315C3.33507 24.1212 2.8944 23.3804 2.76904 22.6814C2.62469 21.8874 2.87161 21.1695 3.49462 20.5427C4.06444 19.9728 4.76343 19.6727 5.52319 19.6727C6.41592 19.6727 7.31244 20.083 8.04941 20.8238L14.3593 26.8867L4.26958 16.4703C3.10714 15.3079 2.52212 13.3819 3.99226 11.9155C4.56209 11.3457 5.26107 11.0456 6.02084 11.0456C6.91356 11.0456 7.81008 11.4559 8.54706 12.1966L18.8571 22.2483L6.4691 9.54886C5.8081 8.88786 5.40163 8.07871 5.32945 7.27336C5.25727 6.41483 5.55358 5.62847 6.18799 4.99407C6.75781 4.42424 7.45679 4.12413 8.21656 4.12413C9.10548 4.12413 10.002 4.53061 10.7428 5.27138L23.3777 17.591L14.1997 8.15849C13.5349 7.49369 13.1284 6.68454 13.0601 5.87919C12.9879 5.02446 13.2842 4.2381 13.9186 3.6037C14.4884 3.03387 15.1874 2.73376 15.9472 2.73376C16.8399 2.73376 17.7364 3.14404 18.4734 3.88481L21.2123 6.57058C26.0938 11.3571 30.1738 15.3649 30.6106 15.8131C30.8234 15.9841 31.1007 16.0486 31.2185 15.9917C31.2944 15.9537 31.378 15.7789 31.3628 15.4104C31.34 14.7646 31.2488 13.9631 31.1539 13.116C30.9639 11.4141 30.7664 9.65143 31.0133 8.48899C31.5527 6.47181 32.6126 5.61707 33.4028 5.24859C34.4892 4.74714 35.5415 4.92189 35.7429 5.01686C37.7182 5.94377 37.327 7.49369 36.7875 9.64383L36.7761 9.69701L36.7154 10.1415C36.3203 12.0865 38.3488 17.4618 40.3774 21.8419L40.4078 21.9026C41.764 24.8657 44.2066 32.4672 37.6727 39.0012C34.6678 41.9984 31.416 43.0203 28.4833 43.0203ZM5.52319 20.8124C5.07493 20.8124 4.64946 20.9985 4.29997 21.348C3.93908 21.7089 3.81372 22.0584 3.8897 22.4763C3.97327 22.9359 4.31137 23.483 4.8394 24.0148C4.8432 24.0186 4.99515 24.1667 5.25727 24.4175C14.1541 33.0522 19.5257 38.1844 20.3842 38.8758L20.4298 38.9176C22.5267 41.0145 30.3181 44.7374 36.8635 38.192C42.8922 32.1633 40.6243 25.124 39.3669 22.3737L39.3403 22.3167C38.0335 19.498 35.0629 12.6601 35.5909 9.93254L35.6783 9.36272C36.2633 7.03784 36.2975 6.55158 35.306 6.07293C35.0135 6.01975 32.9165 5.76523 32.115 8.7549C31.9136 9.70841 32.1074 11.4521 32.2783 12.9906C32.3771 13.8605 32.4683 14.6849 32.4911 15.3725C32.529 16.4551 32.0162 16.8692 31.7047 17.0211C31.0703 17.3289 30.3143 17.0667 29.8433 16.6717L29.7939 16.6261C29.5622 16.3753 24.0501 10.9696 20.4032 7.39113L17.6604 4.69776C16.7259 3.75945 15.5217 3.6037 14.7126 4.41285C14.3175 4.80792 14.1389 5.27138 14.1807 5.78422C14.2263 6.31986 14.515 6.87828 14.9975 7.36073L24.1944 16.7932C24.6275 17.2339 24.6275 17.9557 24.1868 18.3963C23.7652 18.818 23.0206 18.8256 22.5875 18.4077L9.94123 6.08053C9.00672 5.14602 7.79869 4.99027 6.99334 5.79942C6.59826 6.1945 6.41971 6.65795 6.4615 7.17079C6.51089 7.70643 6.7996 8.26865 7.27825 8.74351L19.6738 21.4544C20.1107 21.895 20.1069 22.6168 19.6662 23.0575C19.2446 23.4792 18.5 23.4868 18.0669 23.0689L7.74551 13.0058C6.81099 12.0637 5.60297 11.9117 4.79762 12.7209C3.81372 13.7048 4.33796 14.9242 5.08253 15.6726L15.176 26.0965C15.6091 26.5372 15.6053 27.2552 15.1646 27.6921C14.7391 28.1175 14.0022 28.1213 13.5691 27.7072L7.25166 21.6367C6.71982 21.1011 6.10821 20.8124 5.52319 20.8124Z" fill="#EDA600"/>
<path d="M29.6111 16.1854C27.5256 20.4439 27.7953 26.4043 30.9255 31.187C31.2788 31.8328 31.8828 31.5175 31.5751 30.8527C27.7953 22.765 31.7575 16.9376 31.7575 16.9376L29.6111 16.1854Z" fill="#EDA600"/>
<path d="M21.4097 0.214783C22.5569 -0.0853239 23.7801 -0.058732 24.9692 0.218582C26.1506 0.503494 27.332 1.10371 28.2096 2.08381C29.0681 3.05631 29.5961 4.23774 29.7747 5.47616C29.9418 6.70318 29.7861 7.96819 29.2049 9.01666C29.1365 7.83903 28.9313 6.75636 28.5857 5.75727C28.4071 5.25962 28.1982 4.78477 27.9437 4.33651C27.6929 3.89205 27.3966 3.45138 27.0813 3.09049C26.4393 2.34972 25.5694 1.7723 24.5931 1.32404C23.613 0.860584 22.5455 0.51869 21.4097 0.214783Z" fill="#B0BEC5"/>
<path d="M21.7251 3.81613C22.3595 3.41346 23.1535 3.32988 23.9018 3.46284C24.6578 3.5958 25.3796 3.97189 25.9494 4.49232C26.5154 5.02036 26.9181 5.68516 27.1688 6.37654C27.2904 6.72224 27.3512 7.08692 27.4081 7.44021C27.4271 7.8049 27.4271 8.16959 27.3702 8.53428C27.108 8.25696 26.9029 7.97965 26.7092 7.70993C26.485 7.45541 26.3103 7.18569 26.1089 6.93877C25.7139 6.44872 25.3302 6.00426 24.9161 5.60918C24.4906 5.2255 24.0424 4.8874 23.5219 4.59489C23.0053 4.29479 22.4241 4.04406 21.7251 3.81613Z" fill="#90A4AE"/>
<path d="M0.0072607 27.8853C0.542895 28.9338 1.10132 29.9063 1.75092 30.7648C2.39672 31.6234 3.13749 32.3527 3.99983 32.8276C4.4177 33.0593 4.91534 33.2607 5.40159 33.4126C5.89164 33.5684 6.40068 33.6747 6.92492 33.7469C7.9734 33.8761 9.07506 33.8533 10.2413 33.6747C9.33718 34.4611 8.12915 34.879 6.89833 34.9701C5.65232 35.0537 4.38731 34.784 3.25526 34.1458C2.11561 33.4962 1.27987 32.4629 0.755629 31.365C0.231391 30.2596 -0.0497217 29.0705 0.0072607 27.8853Z" fill="#B0BEC5"/>
<path d="M3.59723 27.4409C3.96571 28.0791 4.3304 28.5919 4.72928 29.0402C5.12436 29.4884 5.54982 29.8569 6.01328 30.1912C6.48433 30.5141 7.00097 30.799 7.5632 31.0839C7.84431 31.2283 8.14442 31.3423 8.44073 31.5094C8.74844 31.6424 9.05994 31.7829 9.38664 31.9843C9.04095 32.1134 8.68765 32.1894 8.32677 32.2464C7.96968 32.2616 7.60119 32.2806 7.2365 32.2312C6.50713 32.1324 5.77775 31.8779 5.13955 31.4334C4.51274 30.9814 3.9923 30.3546 3.70739 29.6442C3.41868 28.9376 3.33511 28.1474 3.59723 27.4409Z" fill="#90A4AE"/>
<defs>
<radialGradient id="paint0_radial_145_2800" cx="0" cy="0" r="1" gradientUnits="userSpaceOnUse" gradientTransform="translate(14.1446 12.9407) rotate(-45) scale(34.5722)">
<stop offset="0.3533" stop-color="#FFCA28"/>
<stop offset="0.8723" stop-color="#FFB300"/>
</radialGradient>
</defs>
</svg>
