<svg width="40" height="41" viewBox="0 0 40 41" fill="none" xmlns="http://www.w3.org/2000/svg">
<path d="M39.9105 34.9624C38.5345 33.5729 36.747 31.7652 34.8786 29.8833C34.764 30.3184 34.565 30.6894 34.275 30.9828C32.1064 33.1513 25.6413 30.3116 18.994 24.5412C18.1643 23.8229 13.3484 31.3807 14.2387 32.2542C15.3415 33.3334 23.0073 38.2776 25.6311 39.2455C33.2733 42.0616 37.1989 39.3197 38.5277 38.0347C39.2764 37.3029 39.7317 36.254 39.9105 34.9624Z" fill="url(#paint0_linear_145_3532)"/>
<path d="M6.86258 7.99216C6.3432 6.36997 5.89129 4.24864 6.72767 3.43923C9.26045 0.977283 17.4152 5.08503 25.0237 12.6901C32.6288 20.2952 36.7736 28.4871 34.2745 30.9861C34.2509 31.0097 34.2206 31.03 34.197 31.0536C36.2643 33.0164 38.3115 34.9657 39.6268 36.2169C41.2692 31.3503 37.4515 21.3407 29.0033 12.6227C27.6307 11.2062 23.5667 7.03773 20.0492 4.67696C16.8318 2.51853 13.3176 0.535481 9.39872 0.0666987C6.84571 -0.240202 2.27593 0.417442 3.22024 4.03955C3.40573 4.75452 3.99929 6.47452 5.96885 8.52502C6.36007 8.9331 7.03457 8.53176 6.86258 7.99216Z" fill="url(#paint1_linear_145_3532)"/>
<path d="M17.2938 12.8485L17.0408 19.5936C17.0206 20.1096 17.2837 20.5986 17.7288 20.865L23.4149 24.2746C24.0389 24.6962 23.9073 25.654 23.1924 25.8901L16.8925 27.4853C16.3832 27.6134 15.9852 28.0148 15.8605 28.524L14.2113 35.2455C14.0022 35.9706 13.0545 36.1392 12.606 35.5322L8.88943 29.9843C8.60276 29.5594 8.11037 29.32 7.59775 29.3604L0.940359 29.8832C0.188284 29.9068 -0.267009 29.0569 0.171421 28.4431L4.42082 22.983C4.74458 22.5681 4.81203 22.0083 4.59619 21.5294L1.93863 15.6038C1.68232 14.8956 2.35008 14.1975 3.06843 14.4268L9.27052 16.7707C9.75617 16.9529 10.2991 16.8584 10.6937 16.5212L15.8267 12.1369C16.4203 11.6748 17.287 12.0964 17.2938 12.8485Z" fill="#FDD835"/>
<path d="M14.262 18.6599L15.8336 14.3599C15.9281 14.1238 16.0697 13.709 16.4373 13.8877C16.7274 14.0294 16.5925 14.7073 16.5925 14.7073L16.2383 18.5992C16.1001 20.0797 15.6987 20.4136 15.1254 20.4507C14.4678 20.4878 13.8101 19.8908 14.262 18.6599Z" fill="#FFFF8D"/>
<path d="M16.5886 26.8887L21.4889 25.8331C21.7351 25.7724 22.1668 25.6915 22.042 25.3003C21.9442 24.9934 21.2528 25.0305 21.2528 25.0305L17.5531 24.7404C16.4706 24.6123 15.6241 24.7876 15.2801 25.361C14.8214 26.1299 15.2396 27.0877 16.5886 26.8887Z" fill="#F4B400"/>
<defs>
<linearGradient id="paint0_linear_145_3532" x1="30.0251" y1="34.6165" x2="16.2559" y2="26.202" gradientUnits="userSpaceOnUse">
<stop offset="0.0969" stop-color="#FFB300"/>
<stop offset="1" stop-color="#FFB300" stop-opacity="0"/>
</linearGradient>
<linearGradient id="paint1_linear_145_3532" x1="37.2934" y1="26.4273" x2="3.42697" y2="-1.07335" gradientUnits="userSpaceOnUse">
<stop stop-color="#FFB300"/>
<stop offset="0.7062" stop-color="#FDD835"/>
<stop offset="0.8408" stop-color="#FDDC36"/>
<stop offset="0.9842" stop-color="#FFE93A"/>
<stop offset="1" stop-color="#FFEB3B"/>
</linearGradient>
</defs>
</svg>
