<svg width="17" height="17" viewBox="0 0 17 17" fill="none" xmlns="http://www.w3.org/2000/svg">
<path d="M8.0939 15.598C7.52227 15.1392 2.21404 9.97714 2.15471 9.9207C1.92027 9.68626 1.77265 9.44313 1.73213 9.22027C1.69017 8.98872 1.76108 8.78612 1.94921 8.59798C2.12432 8.42288 2.3385 8.33026 2.5686 8.33026C2.84935 8.33026 3.13734 8.4634 3.37757 8.70507L5.78421 11.0177C5.82618 11.0582 5.88118 11.0784 5.93472 11.0784C5.99116 11.0784 6.04615 11.0567 6.08812 11.0148C6.17206 10.9308 6.17206 10.7948 6.08957 10.7109L2.24733 6.74271C1.86238 6.35776 1.68148 5.76876 2.13879 5.31146C2.3139 5.13635 2.52808 5.04373 2.75818 5.04373C3.03893 5.04373 3.32692 5.17687 3.56715 5.41855L7.49767 9.25066C7.53963 9.29118 7.59463 9.31289 7.64962 9.31289C7.70461 9.31289 7.76105 9.29118 7.80302 9.24921C7.88696 9.16528 7.8884 9.02924 7.80447 8.94386L3.08379 4.10452C2.86527 3.88599 2.73358 3.62406 2.71042 3.36935C2.68871 3.11031 2.77989 2.87008 2.97525 2.67471C3.15036 2.4996 3.36454 2.40698 3.59464 2.40698C3.8754 2.40698 4.16338 2.54012 4.40361 2.78035L9.21835 7.47498C9.26032 7.5155 9.31531 7.53721 9.37031 7.53721C9.4253 7.53721 9.48174 7.5155 9.52371 7.47353C9.60764 7.3896 9.60909 7.25356 9.52515 7.16818L6.02879 3.57485C5.80882 3.35488 5.67712 3.09439 5.65542 2.83969C5.63371 2.58064 5.72488 2.34041 5.92025 2.14505C6.09536 1.96994 6.30954 1.87732 6.53964 1.87732C6.82039 1.87732 7.10838 2.01046 7.34861 2.25214C8.6308 3.51118 11.9781 6.80349 12.091 6.92505C12.5208 7.22172 12.6076 6.7731 12.6293 6.48222C12.6539 6.14358 12.2661 4.96124 12.4919 3.89757C12.871 2.48368 13.9636 2.71523 13.9882 2.72681C14.5874 3.00756 14.473 3.42724 14.2603 4.27094L14.2386 4.43737C14.0157 5.54011 15.5468 8.80782 15.6597 9.0524C16.2603 10.3664 16.952 13.0307 14.6612 15.3215C12.1503 17.8324 9.0418 16.5459 8.0939 15.598Z" fill="url(#paint0_radial_551_272)"/>
<path d="M11.3153 17.0078C9.77552 17.0078 8.46583 16.2712 7.94919 15.7603C7.48465 15.3812 4.55268 12.5505 2.16484 10.2336C2.06788 10.1395 2.01144 10.086 2.00565 10.0787C1.73503 9.8081 1.56716 9.5259 1.5194 9.25962C1.46441 8.95716 1.55848 8.68365 1.79581 8.44486C2.01289 8.22779 2.27917 8.11346 2.5686 8.11346C2.90869 8.11346 3.25022 8.26976 3.53097 8.55195L5.93472 10.8616L2.09104 6.8935C1.6482 6.45066 1.42534 5.71694 1.98539 5.15834C2.20247 4.94126 2.46875 4.82693 2.75818 4.82693C3.09827 4.82693 3.4398 4.98323 3.72055 5.26543L7.64818 9.09464L2.92895 4.25675C2.67714 4.00494 2.52229 3.69669 2.4948 3.38989C2.4673 3.06283 2.58018 2.76327 2.82186 2.52159C3.03893 2.30451 3.30521 2.19019 3.59465 2.19019C3.93329 2.19019 4.27482 2.34503 4.55702 2.62723L9.37031 7.32041L5.87394 3.72708C5.62069 3.47383 5.46584 3.16558 5.43979 2.85878C5.4123 2.53317 5.52518 2.2336 5.76685 1.99192C5.98393 1.77485 6.25021 1.66052 6.53964 1.66052C6.87973 1.66052 7.22126 1.81682 7.50201 2.09902L8.54542 3.12217C10.405 4.9456 11.9593 6.47237 12.1257 6.64314C12.2068 6.70826 12.3124 6.73286 12.3573 6.71115C12.3862 6.69668 12.4181 6.63011 12.4123 6.48973C12.4036 6.24372 12.3688 5.93836 12.3327 5.61564C12.2603 4.96731 12.1851 4.29582 12.2791 3.85299C12.4846 3.08454 12.8884 2.75893 13.1894 2.61855C13.6033 2.42752 14.0042 2.49409 14.0809 2.53027C14.8334 2.88338 14.6843 3.47383 14.4788 4.29293L14.4745 4.31319L14.4513 4.48251C14.3008 5.22346 15.0736 7.27121 15.8464 8.9398L15.858 8.96295C16.3746 10.0917 17.3052 12.9875 14.816 15.4767C13.6713 16.6185 12.4325 17.0078 11.3153 17.0078ZM2.5686 8.54761C2.39784 8.54761 2.23575 8.61853 2.10261 8.75166C1.96513 8.88915 1.91738 9.02229 1.94632 9.18147C1.97816 9.35658 2.10695 9.56498 2.30811 9.76758C2.30956 9.76903 2.36745 9.82547 2.4673 9.92098C5.85658 13.2104 7.90288 15.1655 8.22994 15.4289L8.24731 15.4448C9.04614 16.2437 12.0143 17.6619 14.5078 15.1684C16.8044 12.8718 15.9405 10.1902 15.4615 9.1424L15.4513 9.12069C14.9535 8.04689 13.8218 5.44198 14.023 4.40291L14.0563 4.18584C14.2791 3.30017 14.2921 3.11493 13.9144 2.93259C13.803 2.91233 13.0042 2.81537 12.6988 3.95429C12.6221 4.31753 12.6959 4.98178 12.761 5.56789C12.7987 5.89929 12.8334 6.21333 12.8421 6.47526C12.8565 6.88771 12.6612 7.04545 12.5425 7.10334C12.3008 7.22056 12.0128 7.1207 11.8334 6.9702L11.8146 6.95283C11.7263 6.85732 9.62646 4.79799 8.23717 3.43476L7.19232 2.40871C6.83631 2.05126 6.37756 1.99192 6.06931 2.30017C5.91881 2.45068 5.85079 2.62723 5.86671 2.8226C5.88407 3.02665 5.99406 3.23939 6.17785 3.42318L9.68145 7.01651C9.84643 7.18438 9.84643 7.45934 9.67856 7.62721C9.51792 7.78785 9.23428 7.79074 9.0693 7.63155L4.25166 2.93548C3.89566 2.57948 3.43546 2.52014 3.12866 2.82839C2.97815 2.9789 2.91014 3.15545 2.92605 3.35082C2.94487 3.55487 3.05485 3.76905 3.2372 3.94995L7.95932 8.79219C8.12574 8.96006 8.1243 9.23502 7.95642 9.40289C7.79579 9.56353 7.51214 9.56642 7.34716 9.40723L3.4152 5.57367C3.05919 5.21478 2.59899 5.15689 2.29219 5.46514C1.91738 5.83995 2.11709 6.3045 2.40073 6.58959L6.24587 10.5606C6.41084 10.7285 6.4094 11.002 6.24153 11.1684C6.07944 11.3305 5.79869 11.332 5.63371 11.1742L3.22707 8.86165C3.02446 8.6576 2.79147 8.54761 2.5686 8.54761Z" fill="#EDA600"/>
<path d="M11.7449 6.78503C10.9504 8.40731 11.0532 10.6779 12.2457 12.4999C12.3802 12.7459 12.6103 12.6258 12.4931 12.3726C11.0532 9.29154 12.5626 7.07157 12.5626 7.07157L11.7449 6.78503Z" fill="#EDA600"/>
<path d="M8.62061 0.700719C9.05765 0.586392 9.52364 0.596522 9.97661 0.702166C10.4267 0.810704 10.8767 1.03936 11.211 1.41273C11.5381 1.7832 11.7393 2.23327 11.8073 2.70505C11.871 3.17249 11.8116 3.6544 11.5902 4.05382C11.5642 3.60519 11.486 3.19275 11.3543 2.81214C11.2863 2.62256 11.2067 2.44167 11.1097 2.2709C11.0142 2.10158 10.9013 1.93371 10.7812 1.79623C10.5367 1.51403 10.2053 1.29406 9.83334 1.12329C9.45997 0.946738 9.05331 0.816493 8.62061 0.700719Z" fill="#B0BEC5"/>
<path d="M8.74072 2.07278C8.9824 1.91938 9.28486 1.88755 9.56995 1.9382C9.85794 1.98885 10.1329 2.13212 10.35 2.33038C10.5656 2.53154 10.719 2.78479 10.8145 3.04818C10.8608 3.17987 10.884 3.3188 10.9057 3.45339C10.9129 3.59231 10.9129 3.73124 10.8912 3.87017C10.7914 3.76453 10.7132 3.65888 10.6394 3.55613C10.554 3.45917 10.4875 3.35643 10.4108 3.26236C10.2603 3.07567 10.1141 2.90635 9.95635 2.75585C9.79426 2.60968 9.6235 2.48089 9.42524 2.36945C9.22842 2.25513 9.007 2.15961 8.74072 2.07278Z" fill="#90A4AE"/>
<path d="M0.467366 11.2418C0.671417 11.6412 0.884151 12.0117 1.13162 12.3388C1.37764 12.6658 1.65984 12.9437 1.98834 13.1246C2.14753 13.2129 2.33711 13.2896 2.52235 13.3475C2.70903 13.4068 2.90296 13.4473 3.10267 13.4748C3.50208 13.524 3.92176 13.5153 4.36605 13.4473C4.02162 13.7469 3.56142 13.9061 3.09254 13.9408C2.61786 13.9726 2.13595 13.8699 1.7047 13.6268C1.27055 13.3793 0.952168 12.9857 0.752458 12.5674C0.552749 12.1463 0.445658 11.6933 0.467366 11.2418Z" fill="#B0BEC5"/>
<path d="M1.83501 11.0729C1.97538 11.316 2.11431 11.5114 2.26626 11.6821C2.41677 11.8529 2.57885 11.9933 2.75541 12.1206C2.93486 12.2436 3.13167 12.3522 3.34585 12.4607C3.45294 12.5157 3.56727 12.5591 3.68015 12.6228C3.79737 12.6734 3.91604 12.727 4.0405 12.8037C3.9088 12.8529 3.77422 12.8818 3.63674 12.9035C3.5007 12.9093 3.36033 12.9166 3.2214 12.8978C2.94354 12.8601 2.66568 12.7632 2.42256 12.5939C2.18378 12.4216 1.98551 12.1829 1.87697 11.9122C1.76699 11.6431 1.73515 11.342 1.83501 11.0729Z" fill="#90A4AE"/>
<defs>
<radialGradient id="paint0_radial_551_272" cx="0" cy="0" r="1" gradientUnits="userSpaceOnUse" gradientTransform="translate(5.85313 5.54878) rotate(-45) scale(13.1704)">
<stop offset="0.3533" stop-color="#FFCA28"/>
<stop offset="0.8723" stop-color="#FFB300"/>
</radialGradient>
</defs>
</svg>
