<svg width="23" height="24" viewBox="0 0 23 24" fill="none" xmlns="http://www.w3.org/2000/svg">
<path d="M22.6823 20.1021C21.9077 19.3199 20.9014 18.3023 19.8496 17.2429C19.7851 17.4878 19.6731 17.6966 19.5098 17.8618C18.289 19.0826 14.6495 17.484 10.9074 14.2356C10.4404 13.8312 7.72927 18.0858 8.23049 18.5775C8.85131 19.1851 13.1667 21.9684 14.6438 22.5132C18.9459 24.0985 21.1558 22.555 21.9039 21.8317C22.3254 21.4197 22.5817 20.8292 22.6823 20.1021Z" fill="url(#paint0_linear_678_753)"/>
<path d="M4.0777 4.91931C3.78532 4.00611 3.53091 2.81192 4.00176 2.35627C5.42757 0.970323 10.0183 3.28276 14.3014 7.564C18.5826 11.8452 20.916 16.4568 19.5091 17.8637C19.4959 17.8769 19.4788 17.8883 19.4655 17.9016C20.6293 19.0066 21.7817 20.1039 22.5221 20.8083C23.4467 18.0687 21.2976 12.4338 16.5417 7.52603C15.769 6.72864 13.4812 4.38202 11.501 3.05304C9.68982 1.83796 7.71153 0.721613 5.50541 0.457714C4.0682 0.284945 1.49566 0.655163 2.02726 2.69421C2.13168 3.0967 2.46583 4.06497 3.57458 5.21929C3.79481 5.44901 4.17452 5.22308 4.0777 4.91931Z" fill="url(#paint1_linear_678_753)"/>
<path d="M9.9503 7.65327L9.80791 11.4504C9.79652 11.7409 9.94461 12.0162 10.1952 12.1661L13.3962 14.0856C13.7474 14.3229 13.6734 14.8621 13.2709 14.995L9.72437 15.893C9.43769 15.9651 9.21366 16.1911 9.14342 16.4778L8.21502 20.2616C8.09731 20.6698 7.56382 20.7647 7.31131 20.4229L5.21911 17.2998C5.05773 17.0606 4.78054 16.9258 4.49196 16.9486L0.744215 17.2429C0.320837 17.2562 0.0645325 16.7777 0.311344 16.4322L2.70352 13.3584C2.88578 13.1249 2.92375 12.8097 2.80225 12.5402L1.30619 9.20439C1.1619 8.8057 1.53781 8.4127 1.9422 8.5418L5.43364 9.86129C5.70703 9.96381 6.0127 9.91065 6.23483 9.7208L9.12443 7.25268C9.45858 6.99258 9.9465 7.2299 9.9503 7.65327Z" fill="#FDD835"/>
<path d="M8.24319 10.9246L9.12792 8.5039C9.18108 8.37101 9.26082 8.13748 9.46776 8.23811C9.63103 8.31785 9.55509 8.69946 9.55509 8.69946L9.35574 10.8904C9.2779 11.7239 9.05198 11.9118 8.72922 11.9327C8.359 11.9536 7.98879 11.6175 8.24319 10.9246Z" fill="#FFFF8D"/>
<path d="M9.55322 15.5572L12.3118 14.9629C12.4504 14.9288 12.6934 14.8832 12.6232 14.663C12.5681 14.4902 12.1789 14.5111 12.1789 14.5111L10.0962 14.3478C9.48677 14.2757 9.01023 14.3744 8.81658 14.6971C8.55838 15.13 8.7938 15.6692 9.55322 15.5572Z" fill="#F4B400"/>
<defs>
<linearGradient id="paint0_linear_678_753" x1="17.1174" y1="19.9074" x2="9.36603" y2="15.1705" gradientUnits="userSpaceOnUse">
<stop offset="0.0969" stop-color="#FFB300"/>
<stop offset="1" stop-color="#FFB300" stop-opacity="0"/>
</linearGradient>
<linearGradient id="paint1_linear_678_753" x1="21.2086" y1="15.2973" x2="2.14364" y2="-0.184071" gradientUnits="userSpaceOnUse">
<stop stop-color="#FFB300"/>
<stop offset="0.7062" stop-color="#FDD835"/>
<stop offset="0.8408" stop-color="#FDDC36"/>
<stop offset="0.9842" stop-color="#FFE93A"/>
<stop offset="1" stop-color="#FFEB3B"/>
</linearGradient>
</defs>
</svg>
