<svg width="42" height="41" viewBox="0 0 42 41" fill="none" xmlns="http://www.w3.org/2000/svg">
<path d="M41.4704 19.4455L36.54 17.8563C33.3864 16.8157 31.5388 14.2638 30.6717 11.0571L28.502 0.488438C28.4454 0.279613 28.3074 0 27.8826 0C27.5251 0 27.3199 0.279613 27.2632 0.488438L25.0936 11.0606C24.2229 14.2673 22.3789 16.8193 19.2252 17.8598L14.2949 19.449C13.5976 19.6756 13.587 20.6595 14.2807 20.8966L19.2465 22.6062C22.3895 23.6503 24.2229 26.1987 25.0936 29.3912L27.2668 39.8431C27.3234 40.0519 27.4402 40.4271 27.8862 40.4271C28.3569 40.4271 28.4489 40.0519 28.5056 39.8431L30.6788 29.3912C31.5494 26.1951 33.3829 23.6468 36.5259 22.6062L41.4916 20.8966C42.1783 20.656 42.1677 19.672 41.4704 19.4455Z" fill="#FDD835"/>
<path d="M41.9377 19.8879C41.8599 19.6933 41.7077 19.5234 41.4705 19.4455L36.5401 17.8563C33.3865 16.8157 31.539 14.2638 30.6718 11.0571L28.5021 0.488453C28.4703 0.368113 28.357 0.14867 28.2261 0.0849609L28.9269 10.6926C29.4472 15.5345 29.8931 17.8138 33.7582 18.4792C37.0781 19.0526 40.9184 19.711 41.9377 19.8879Z" fill="#FFEE58"/>
<path d="M41.9483 20.4404L33.3971 22.4013C30.3851 23.1658 28.7251 24.9107 28.7251 29.4765L27.8862 40.4274C28.1729 40.3991 28.4065 40.2434 28.5056 39.8434L30.6788 29.3916C31.5495 26.1955 33.3829 23.6471 36.5259 22.6065L41.4917 20.897C41.7253 20.8121 41.874 20.6386 41.9483 20.4404Z" fill="#F4B400"/>
<path d="M13.233 28.6411C10.2846 27.6678 10.0157 26.5705 9.52014 24.7194L8.28489 20.3872C8.21056 20.1076 7.48144 20.1076 7.40357 20.3872L6.56473 24.3903C6.06568 26.2343 5.00386 27.6996 3.19168 28.2978L0.303527 29.5507C-0.0964253 29.6817 -0.103504 30.248 0.296449 30.3825L3.20584 31.4124C5.01094 32.0106 6.06568 33.4759 6.56827 35.3129L7.40711 39.1425C7.48498 39.4221 8.21056 39.4221 8.28489 39.1425L9.26884 35.3306C9.7679 33.483 10.5324 32.0141 12.9852 31.4124L15.7176 30.3825C16.1176 30.2444 16.114 29.6781 15.7106 29.5472L13.233 28.6411Z" fill="#FDD835"/>
<path d="M8.51871 24.6558C8.81956 27.4378 8.97175 28.2093 11.2264 28.7863L15.9231 29.703C15.8736 29.6357 15.8028 29.5791 15.7072 29.5508L13.2297 28.6412C10.6423 27.7563 9.92739 26.6308 9.44249 24.3797C8.95759 22.1287 8.44084 20.6598 8.44084 20.6598C8.26033 20.1749 8.00195 20.1997 8.00195 20.1997L8.51871 24.6558Z" fill="#FFEE58"/>
<path d="M8.60355 34.3671C8.60355 31.7444 10.037 30.4454 12.3164 30.4454L15.8629 30.3003C15.8629 30.3003 15.6576 30.5728 15.3001 30.6578L12.9853 31.4117C11.021 32.201 10.1255 32.5974 9.51672 35.2838C9.51672 35.2838 8.73097 38.4091 8.58232 38.7382C8.37703 39.1984 8.13281 39.2939 8.13281 39.2939L8.60355 34.3671Z" fill="#F4B400"/>
<path d="M19.5795 7.87488C19.7777 7.80763 19.7706 7.52448 19.5688 7.46785L16.8364 6.73165C16.263 6.57592 15.8171 6.13349 15.6543 5.56365L14.5783 1.12169C14.5252 0.90579 14.2173 0.905789 14.1642 1.12523L13.1519 5.54949C12.9962 6.13703 12.536 6.59007 11.9485 6.74227L9.23378 7.44661C9.03203 7.4997 9.01787 7.78285 9.21608 7.85364L12.0795 8.84468C12.5927 9.02165 12.9891 9.43929 13.1448 9.95959L14.1677 14.0618C14.2208 14.2741 14.5252 14.2777 14.5783 14.0618L15.6366 9.94543C15.7958 9.42514 16.1958 9.01103 16.7125 8.8376L19.5795 7.87488Z" fill="#F4B400" stroke="#F4B400" stroke-width="0.472108" stroke-miterlimit="10"/>
</svg>
