<svg width="174" height="56" viewBox="0 0 174 56" fill="none" xmlns="http://www.w3.org/2000/svg">
<g clip-path="url(#clip0_680_577)">
<path d="M91.8655 14.2736C91.8655 16.2354 90.297 17.8158 88.3499 17.8158C86.4029 17.8158 84.8344 16.2354 84.8344 14.2736C84.8344 12.3117 86.3488 10.7313 88.3499 10.7313C90.3511 10.7858 91.8655 12.3662 91.8655 14.2736ZM77.3708 21.4126C77.3708 21.7396 77.3708 22.2845 77.3708 22.2845C77.3708 22.2845 75.6941 20.1047 72.1245 20.1047C66.2293 20.1047 61.6321 24.6279 61.6321 30.8949C61.6321 37.1075 66.1752 41.6852 72.1245 41.6852C75.7482 41.6852 77.3708 39.4508 77.3708 39.4508V40.3773C77.3708 40.8132 77.6953 41.1402 78.1279 41.1402H82.5088V20.6496C82.5088 20.6496 78.5065 20.6496 78.1279 20.6496C77.6953 20.6496 77.3708 21.0311 77.3708 21.4126ZM77.3708 34.5462C76.5595 35.7451 74.937 36.7805 72.9899 36.7805C69.5285 36.7805 66.8783 34.6007 66.8783 30.8949C66.8783 27.1892 69.5285 25.0093 72.9899 25.0093C74.8829 25.0093 76.6136 26.0993 77.3708 27.2437V34.5462ZM85.7539 20.6496H90.946V41.1402H85.7539V20.6496ZM163.311 20.1047C159.742 20.1047 158.065 22.2845 158.065 22.2845V10.7858H152.873V41.1402C152.873 41.1402 156.875 41.1402 157.254 41.1402C157.686 41.1402 158.011 40.7587 158.011 40.3773V39.4508C158.011 39.4508 159.688 41.6852 163.257 41.6852C169.152 41.6852 173.75 37.1075 173.75 30.8949C173.75 24.6824 169.152 20.1047 163.311 20.1047ZM162.446 36.726C160.445 36.726 158.876 35.6906 158.065 34.4917V27.1892C158.876 26.0993 160.607 24.9548 162.446 24.9548C165.907 24.9548 168.558 27.1347 168.558 30.8404C168.558 34.5462 165.907 36.726 162.446 36.726ZM150.169 28.9876V41.1947H144.977V29.587C144.977 26.2083 143.895 24.8458 140.974 24.8458C139.406 24.8458 137.783 25.6633 136.756 26.8622V41.1402H131.564V20.6496H135.674C136.107 20.6496 136.431 21.0311 136.431 21.4126V22.2845C137.946 20.7041 139.947 20.1047 141.948 20.1047C144.219 20.1047 146.112 20.7586 147.627 22.0665C149.466 23.5924 150.169 25.5543 150.169 28.9876ZM118.962 20.1047C115.392 20.1047 113.716 22.2845 113.716 22.2845V10.7858H108.524V41.1402C108.524 41.1402 112.526 41.1402 112.904 41.1402C113.337 41.1402 113.662 40.7587 113.662 40.3773V39.4508C113.662 39.4508 115.338 41.6852 118.908 41.6852C124.803 41.6852 129.4 37.1075 129.4 30.8949C129.454 24.6824 124.857 20.1047 118.962 20.1047ZM118.097 36.726C116.095 36.726 114.527 35.6906 113.716 34.4917V27.1892C114.527 26.0993 116.258 24.9548 118.097 24.9548C121.558 24.9548 124.208 27.1347 124.208 30.8404C124.208 34.5462 121.558 36.726 118.097 36.726ZM104.035 20.1047C105.603 20.1047 106.414 20.3772 106.414 20.3772V25.2273C106.414 25.2273 102.087 23.7559 99.3832 26.8622V41.1947H94.1911V20.6496C94.1911 20.6496 98.1934 20.6496 98.572 20.6496C99.0046 20.6496 99.3291 21.0311 99.3291 21.4126V22.2845C100.303 21.1401 102.412 20.1047 104.035 20.1047ZM50.1121 39.2873C49.8417 38.6334 49.5712 37.9249 49.3008 37.3255C48.8681 36.3446 48.4355 35.4181 48.0569 34.5462L48.0028 34.4917C44.2709 26.3172 40.2687 18.0338 36.0501 9.85939L35.8878 9.53241C35.4551 8.71497 35.0225 7.84303 34.5898 6.97109C34.0489 5.99016 33.5081 4.95473 32.6427 3.9738C30.912 1.79395 28.4241 0.595032 25.774 0.595032C23.0698 0.595032 20.636 1.79395 18.8512 3.8648C18.0399 4.84574 17.445 5.88116 16.9041 6.8621C16.4714 7.73404 16.0388 8.60598 15.6061 9.42342L15.4438 9.7504C11.2793 17.9248 7.22295 26.2083 3.49111 34.3827L3.43703 34.4917C3.05843 35.3636 2.62576 36.2901 2.19308 37.271C1.92266 37.8704 1.65223 38.5244 1.38181 39.2329C0.678709 41.2492 0.46237 43.1566 0.732794 45.1184C1.32772 49.2057 4.03196 52.6389 7.7638 54.1648C9.17 54.7643 10.6303 55.0368 12.1447 55.0368C12.5773 55.0368 13.1182 54.9823 13.5509 54.9278C15.3357 54.7098 17.1745 54.1103 18.9593 53.0749C21.1768 51.8215 23.2861 50.0231 25.6658 47.4073C28.0455 50.0231 30.2089 51.8215 32.3723 53.0749C34.1571 54.1103 35.996 54.7098 37.7808 54.9278C38.2135 54.9823 38.7543 55.0368 39.187 55.0368C40.7014 55.0368 42.2157 54.7643 43.5678 54.1648C47.3538 52.6389 50.0039 49.1512 50.5989 45.1184C51.0315 43.2111 50.8152 41.3037 50.1121 39.2873ZM25.7199 42.1211C22.7993 38.4154 20.9064 34.9276 20.2574 31.9849C19.9869 30.7314 19.9329 29.6415 20.0951 28.6606C20.2033 27.7886 20.5278 27.0257 20.9605 26.3717C21.9881 24.9003 23.7188 23.9739 25.7199 23.9739C27.721 23.9739 29.5058 24.8458 30.4794 26.3717C30.912 27.0257 31.2365 27.7886 31.3447 28.6606C31.507 29.6415 31.4529 30.7859 31.1825 31.9849C30.5334 34.8732 28.6405 38.3609 25.7199 42.1211ZM47.2997 44.6825C46.9211 47.5163 45.0281 49.9686 42.378 51.0585C41.08 51.6035 39.6738 51.767 38.2675 51.6035C36.9154 51.44 35.5633 51.004 34.1571 50.1866C32.2101 49.0967 30.263 47.4073 27.9915 44.9005C31.5611 40.4863 33.7244 36.4535 34.5357 32.8568C34.9143 31.1674 34.9684 29.6415 34.8061 28.2246C34.5898 26.8622 34.103 25.6088 33.3458 24.5189C31.6692 22.0665 28.8568 20.6496 25.7199 20.6496C22.583 20.6496 19.7706 22.121 18.094 24.5189C17.3368 25.6088 16.85 26.8622 16.6337 28.2246C16.4173 29.6415 16.4714 31.2219 16.9041 32.8568C17.7154 36.4535 19.9329 40.5408 23.4484 44.955C21.2309 47.4618 19.2297 49.1512 17.2827 50.2411C15.8765 51.0585 14.5244 51.4945 13.1723 51.658C11.712 51.8215 10.3058 51.6035 9.06183 51.113C6.41168 50.0231 4.51872 47.5708 4.14013 44.737C3.97787 43.3746 4.08604 42.0122 4.62689 40.4863C4.78914 39.9413 5.05957 39.3963 5.32999 38.7424C5.70858 37.8704 6.14126 36.944 6.57394 36.0176L6.62802 35.9086C10.3599 27.7886 14.3621 19.5052 18.5266 11.4398L18.6889 11.1128C19.1216 10.2954 19.5543 9.42342 19.9869 8.60598C20.4196 7.73404 20.9064 6.91659 21.5013 6.20814C22.6371 4.90023 24.1515 4.19178 25.8281 4.19178C27.5047 4.19178 29.0191 4.90023 30.1549 6.20814C30.7498 6.91659 31.2365 7.73404 31.6692 8.60598C32.1019 9.42342 32.5346 10.2954 32.9673 11.1128L33.1295 11.4398C37.2399 19.5597 41.2422 27.8431 44.974 35.9631V36.0176C45.4067 36.8895 45.7853 37.8704 46.218 38.7424C46.4884 39.3963 46.7588 39.9413 46.9211 40.4863C47.3538 41.9032 47.516 43.2656 47.2997 44.6825Z" fill="white"/>
</g>
<defs>
<clipPath id="clip0_680_577">
<rect width="173.125" height="54.4417" fill="white" transform="translate(0.625 0.595093)"/>
</clipPath>
</defs>
</svg>
