<svg width="774" height="233" viewBox="0 0 774 233" fill="none" xmlns="http://www.w3.org/2000/svg">
<path d="M6.4 86V68.96H31.36C34.64 68.96 37.24 68.12 39.16 66.44C41.08 64.68 42.04 62.44 42.04 59.72C42.04 56.84 41.04 54.56 39.04 52.88C37.04 51.2 34.28 50.4 30.76 50.48H6.4V35.84L20.92 36.32C29 36.32 36.12 37.16 42.28 38.84C48.52 40.44 53.36 43.08 56.8 46.76C60.24 50.36 61.96 55.28 61.96 61.52C61.96 66.8 60.76 71.28 58.36 74.96C55.96 78.56 52.64 81.32 48.4 83.24C44.16 85.08 39.2 86 33.52 86H6.4ZM0.16 86V1.99999H19V86H0.16ZM5.68 51.68V35H28.96C32 35 34.44 34.24 36.28 32.72C38.12 31.12 39.04 28.92 39.04 26.12C39.04 23.24 38.04 21 36.04 19.4C34.12 17.8 31.52 17.04 28.24 17.12H5.68V2.24L29.56 1.88C35.32 1.88 40.4 2.8 44.8 4.64C49.2 6.4 52.64 9.08 55.12 12.68C57.6 16.28 58.84 20.84 58.84 26.36C58.84 30.6 57.24 34.52 54.04 38.12C50.92 41.64 46.56 44.52 40.96 46.76C35.36 48.92 28.88 50 21.52 50L5.68 51.68ZM73.7538 86V1.99999H93.0738V86H73.7538ZM87.7938 86V68.24H129.074V86H87.7938ZM87.7938 52.28V35.12H122.714V52.28H87.7938ZM87.7938 19.76V1.99999H128.474V19.76H87.7938ZM201.108 87.44C197.028 87.44 193.108 86.92 189.348 85.88C185.668 84.76 182.308 83.28 179.268 81.44C176.308 79.52 173.868 77.4 171.948 75.08C170.028 72.68 168.828 70.12 168.348 67.4L187.428 62C188.308 64.32 189.828 66.36 191.988 68.12C194.228 69.8 197.028 70.68 200.388 70.76C203.668 70.84 206.388 70.08 208.548 68.48C210.788 66.88 211.908 64.8 211.908 62.24C211.908 60.24 211.108 58.48 209.508 56.96C207.988 55.44 205.788 54.28 202.908 53.48L191.028 50.48C186.868 49.44 183.228 47.8 180.108 45.56C177.068 43.32 174.668 40.6 172.908 37.4C171.228 34.12 170.388 30.4 170.388 26.24C170.388 18.16 173.068 11.88 178.428 7.4C183.788 2.84 191.348 0.559999 201.108 0.559999C206.468 0.559999 211.148 1.32 215.148 2.84C219.148 4.28 222.548 6.44 225.348 9.31999C228.228 12.2 230.508 15.8 232.188 20.12L213.228 25.76C212.588 23.6 211.188 21.64 209.028 19.88C206.948 18.12 204.228 17.24 200.868 17.24C197.508 17.24 194.868 18 192.948 19.52C191.108 21.04 190.188 23.24 190.188 26.12C190.188 28.12 190.948 29.8 192.468 31.16C193.988 32.44 196.068 33.4 198.708 34.04L210.588 37.04C217.388 38.72 222.668 41.88 226.428 46.52C230.268 51.08 232.188 56.28 232.188 62.12C232.188 67.4 230.948 71.92 228.468 75.68C226.068 79.44 222.548 82.36 217.908 84.44C213.268 86.44 207.668 87.44 201.108 87.44ZM244.613 86V1.99999H263.933V86H244.613ZM323.918 67.52L280.598 4.75999L289.958 2.48L301.478 1.99999L333.638 49.76L323.918 67.52ZM280.238 86V1.99999H299.558V86H280.238ZM323.918 67.52L313.958 49.76L346.238 1.99999L357.998 2.48L366.998 4.52L323.918 67.52ZM348.158 86V1.99999H367.478V86H348.158ZM400.632 59.48V41.72H416.952C420.392 41.72 423.152 40.72 425.232 38.72C427.312 36.64 428.352 33.96 428.352 30.68C428.352 28.52 427.832 26.6 426.792 24.92C425.832 23.24 424.432 21.96 422.592 21.08C420.832 20.12 418.752 19.64 416.352 19.64H400.632V1.99999L416.832 1.88C422.912 1.8 428.312 3 433.032 5.48C437.752 7.96 441.432 11.36 444.072 15.68C446.792 20 448.152 25 448.152 30.68C448.152 36.2 446.832 41.16 444.192 45.56C441.632 49.88 438.032 53.28 433.392 55.76C428.752 58.24 423.432 59.48 417.432 59.48H400.632ZM383.832 86V1.99999H403.152V86H383.832ZM457.543 86V1.99999H476.863V86H457.543ZM469.063 86V68.24H512.623V86H469.063ZM522.933 86V1.99999H542.253V86H522.933ZM536.973 86V68.24H578.253V86H536.973ZM536.973 52.28V35.12H571.893V52.28H536.973ZM536.973 19.76V1.99999H577.653V19.76H536.973ZM601.283 87.8C598.243 87.8 595.643 86.72 593.483 84.56C591.323 82.4 590.243 79.8 590.243 76.76C590.243 73.8 591.323 71.24 593.483 69.08C595.643 66.92 598.243 65.84 601.283 65.84C604.243 65.84 606.803 66.92 608.963 69.08C611.123 71.24 612.203 73.8 612.203 76.76C612.203 79.8 611.123 82.4 608.963 84.56C606.803 86.72 604.243 87.8 601.283 87.8ZM6.4 231V213.96H31.36C34.64 213.96 37.24 213.12 39.16 211.44C41.08 209.68 42.04 207.44 42.04 204.72C42.04 201.84 41.04 199.56 39.04 197.88C37.04 196.2 34.28 195.4 30.76 195.48H6.4V180.84L20.92 181.32C29 181.32 36.12 182.16 42.28 183.84C48.52 185.44 53.36 188.08 56.8 191.76C60.24 195.36 61.96 200.28 61.96 206.52C61.96 211.8 60.76 216.28 58.36 219.96C55.96 223.56 52.64 226.32 48.4 228.24C44.16 230.08 39.2 231 33.52 231H6.4ZM0.16 231V147H19V231H0.16ZM5.68 196.68V180H28.96C32 180 34.44 179.24 36.28 177.72C38.12 176.12 39.04 173.92 39.04 171.12C39.04 168.24 38.04 166 36.04 164.4C34.12 162.8 31.52 162.04 28.24 162.12H5.68V147.24L29.56 146.88C35.32 146.88 40.4 147.8 44.8 149.64C49.2 151.4 52.64 154.08 55.12 157.68C57.6 161.28 58.84 165.84 58.84 171.36C58.84 175.6 57.24 179.52 54.04 183.12C50.92 186.64 46.56 189.52 40.96 191.76C35.36 193.92 28.88 195 21.52 195L5.68 196.68ZM73.7538 231V147H93.0738V231H73.7538ZM87.7938 231V213.24H129.074V231H87.7938ZM87.7938 197.28V180.12H122.714V197.28H87.7938ZM87.7938 164.76V147H128.474V164.76H87.7938ZM210.228 232.44C201.908 232.44 194.548 230.6 188.148 226.92C181.828 223.16 176.828 218.04 173.148 211.56C169.548 205 167.748 197.48 167.748 189C167.748 180.52 169.548 173.04 173.148 166.56C176.828 160 181.828 154.88 188.148 151.2C194.548 147.44 201.908 145.56 210.228 145.56C216.308 145.56 221.868 146.64 226.908 148.8C232.028 150.88 236.428 153.84 240.108 157.68C243.868 161.52 246.748 165.96 248.748 171L230.628 177.12C229.428 174.32 227.788 171.88 225.708 169.8C223.708 167.72 221.388 166.12 218.748 165C216.188 163.88 213.348 163.32 210.228 163.32C205.828 163.32 201.908 164.4 198.468 166.56C195.028 168.72 192.348 171.76 190.428 175.68C188.508 179.52 187.548 183.96 187.548 189C187.548 194.04 188.508 198.52 190.428 202.44C192.428 206.28 195.148 209.32 198.588 211.56C202.108 213.72 206.108 214.8 210.588 214.8C213.868 214.8 216.788 214.2 219.348 213C221.908 211.8 224.108 210.12 225.948 207.96C227.868 205.8 229.508 203.32 230.868 200.52L248.988 206.64C247.068 211.76 244.228 216.28 240.468 220.2C236.708 224.04 232.268 227.04 227.148 229.2C222.028 231.36 216.388 232.44 210.228 232.44ZM276.296 202.8V185.04H291.896C294.136 185.04 296.136 184.6 297.896 183.72C299.656 182.84 301.016 181.64 301.976 180.12C303.016 178.52 303.536 176.76 303.536 174.84C303.536 171.88 302.416 169.44 300.176 167.52C298.016 165.6 295.136 164.64 291.536 164.64H276.296V147L292.496 146.88C298.576 146.8 303.976 147.96 308.696 150.36C313.416 152.76 317.096 156.08 319.736 160.32C322.456 164.56 323.816 169.4 323.816 174.84C323.816 180.28 322.456 185.12 319.736 189.36C317.016 193.6 313.256 196.92 308.456 199.32C303.736 201.64 298.296 202.8 292.136 202.8H276.296ZM259.496 231V147H278.816V231H259.496ZM305.096 231L286.136 197.64L300.656 186.96L327.176 231H305.096ZM338.012 231V147H357.332V231H338.012ZM352.052 231V213.24H393.332V231H352.052ZM352.052 197.28V180.12H386.972V197.28H352.052ZM352.052 164.76V147H392.732V164.76H352.052ZM466.761 231L435.321 147H454.521L487.161 231H466.761ZM401.241 231L433.881 147H453.081L421.641 231H401.241ZM416.601 215.04V198H471.921V215.04H416.601ZM506.838 231V153.96H526.038V231H506.838ZM482.358 164.76V147H550.518V164.76H482.358ZM560.433 231V147H579.753V231H560.433ZM623.898 231L654.498 147H675.378L642.618 231H623.898ZM621.738 231L588.858 147H609.618L640.458 231H621.738ZM684.418 231V147H703.738V231H684.418ZM698.458 231V213.24H739.738V231H698.458ZM698.458 197.28V180.12H733.378V197.28H698.458ZM698.458 164.76V147H739.138V164.76H698.458ZM762.768 232.8C759.728 232.8 757.128 231.72 754.968 229.56C752.808 227.4 751.728 224.8 751.728 221.76C751.728 218.8 752.808 216.24 754.968 214.08C757.128 211.92 759.728 210.84 762.768 210.84C765.728 210.84 768.288 211.92 770.448 214.08C772.608 216.24 773.688 218.8 773.688 221.76C773.688 224.8 772.608 227.4 770.448 229.56C768.288 231.72 765.728 232.8 762.768 232.8Z" fill="white"/>
<path d="M6.4 86V68.96H31.36C34.64 68.96 37.24 68.12 39.16 66.44C41.08 64.68 42.04 62.44 42.04 59.72C42.04 56.84 41.04 54.56 39.04 52.88C37.04 51.2 34.28 50.4 30.76 50.48H6.4V35.84L20.92 36.32C29 36.32 36.12 37.16 42.28 38.84C48.52 40.44 53.36 43.08 56.8 46.76C60.24 50.36 61.96 55.28 61.96 61.52C61.96 66.8 60.76 71.28 58.36 74.96C55.96 78.56 52.64 81.32 48.4 83.24C44.16 85.08 39.2 86 33.52 86H6.4ZM0.16 86V1.99999H19V86H0.16ZM5.68 51.68V35H28.96C32 35 34.44 34.24 36.28 32.72C38.12 31.12 39.04 28.92 39.04 26.12C39.04 23.24 38.04 21 36.04 19.4C34.12 17.8 31.52 17.04 28.24 17.12H5.68V2.24L29.56 1.88C35.32 1.88 40.4 2.8 44.8 4.64C49.2 6.4 52.64 9.08 55.12 12.68C57.6 16.28 58.84 20.84 58.84 26.36C58.84 30.6 57.24 34.52 54.04 38.12C50.92 41.64 46.56 44.52 40.96 46.76C35.36 48.92 28.88 50 21.52 50L5.68 51.68ZM73.7538 86V1.99999H93.0738V86H73.7538ZM87.7938 86V68.24H129.074V86H87.7938ZM87.7938 52.28V35.12H122.714V52.28H87.7938ZM87.7938 19.76V1.99999H128.474V19.76H87.7938ZM201.108 87.44C197.028 87.44 193.108 86.92 189.348 85.88C185.668 84.76 182.308 83.28 179.268 81.44C176.308 79.52 173.868 77.4 171.948 75.08C170.028 72.68 168.828 70.12 168.348 67.4L187.428 62C188.308 64.32 189.828 66.36 191.988 68.12C194.228 69.8 197.028 70.68 200.388 70.76C203.668 70.84 206.388 70.08 208.548 68.48C210.788 66.88 211.908 64.8 211.908 62.24C211.908 60.24 211.108 58.48 209.508 56.96C207.988 55.44 205.788 54.28 202.908 53.48L191.028 50.48C186.868 49.44 183.228 47.8 180.108 45.56C177.068 43.32 174.668 40.6 172.908 37.4C171.228 34.12 170.388 30.4 170.388 26.24C170.388 18.16 173.068 11.88 178.428 7.4C183.788 2.84 191.348 0.559999 201.108 0.559999C206.468 0.559999 211.148 1.32 215.148 2.84C219.148 4.28 222.548 6.44 225.348 9.31999C228.228 12.2 230.508 15.8 232.188 20.12L213.228 25.76C212.588 23.6 211.188 21.64 209.028 19.88C206.948 18.12 204.228 17.24 200.868 17.24C197.508 17.24 194.868 18 192.948 19.52C191.108 21.04 190.188 23.24 190.188 26.12C190.188 28.12 190.948 29.8 192.468 31.16C193.988 32.44 196.068 33.4 198.708 34.04L210.588 37.04C217.388 38.72 222.668 41.88 226.428 46.52C230.268 51.08 232.188 56.28 232.188 62.12C232.188 67.4 230.948 71.92 228.468 75.68C226.068 79.44 222.548 82.36 217.908 84.44C213.268 86.44 207.668 87.44 201.108 87.44ZM244.613 86V1.99999H263.933V86H244.613ZM323.918 67.52L280.598 4.75999L289.958 2.48L301.478 1.99999L333.638 49.76L323.918 67.52ZM280.238 86V1.99999H299.558V86H280.238ZM323.918 67.52L313.958 49.76L346.238 1.99999L357.998 2.48L366.998 4.52L323.918 67.52ZM348.158 86V1.99999H367.478V86H348.158ZM400.632 59.48V41.72H416.952C420.392 41.72 423.152 40.72 425.232 38.72C427.312 36.64 428.352 33.96 428.352 30.68C428.352 28.52 427.832 26.6 426.792 24.92C425.832 23.24 424.432 21.96 422.592 21.08C420.832 20.12 418.752 19.64 416.352 19.64H400.632V1.99999L416.832 1.88C422.912 1.8 428.312 3 433.032 5.48C437.752 7.96 441.432 11.36 444.072 15.68C446.792 20 448.152 25 448.152 30.68C448.152 36.2 446.832 41.16 444.192 45.56C441.632 49.88 438.032 53.28 433.392 55.76C428.752 58.24 423.432 59.48 417.432 59.48H400.632ZM383.832 86V1.99999H403.152V86H383.832ZM457.543 86V1.99999H476.863V86H457.543ZM469.063 86V68.24H512.623V86H469.063ZM522.933 86V1.99999H542.253V86H522.933ZM536.973 86V68.24H578.253V86H536.973ZM536.973 52.28V35.12H571.893V52.28H536.973ZM536.973 19.76V1.99999H577.653V19.76H536.973ZM601.283 87.8C598.243 87.8 595.643 86.72 593.483 84.56C591.323 82.4 590.243 79.8 590.243 76.76C590.243 73.8 591.323 71.24 593.483 69.08C595.643 66.92 598.243 65.84 601.283 65.84C604.243 65.84 606.803 66.92 608.963 69.08C611.123 71.24 612.203 73.8 612.203 76.76C612.203 79.8 611.123 82.4 608.963 84.56C606.803 86.72 604.243 87.8 601.283 87.8ZM6.4 231V213.96H31.36C34.64 213.96 37.24 213.12 39.16 211.44C41.08 209.68 42.04 207.44 42.04 204.72C42.04 201.84 41.04 199.56 39.04 197.88C37.04 196.2 34.28 195.4 30.76 195.48H6.4V180.84L20.92 181.32C29 181.32 36.12 182.16 42.28 183.84C48.52 185.44 53.36 188.08 56.8 191.76C60.24 195.36 61.96 200.28 61.96 206.52C61.96 211.8 60.76 216.28 58.36 219.96C55.96 223.56 52.64 226.32 48.4 228.24C44.16 230.08 39.2 231 33.52 231H6.4ZM0.16 231V147H19V231H0.16ZM5.68 196.68V180H28.96C32 180 34.44 179.24 36.28 177.72C38.12 176.12 39.04 173.92 39.04 171.12C39.04 168.24 38.04 166 36.04 164.4C34.12 162.8 31.52 162.04 28.24 162.12H5.68V147.24L29.56 146.88C35.32 146.88 40.4 147.8 44.8 149.64C49.2 151.4 52.64 154.08 55.12 157.68C57.6 161.28 58.84 165.84 58.84 171.36C58.84 175.6 57.24 179.52 54.04 183.12C50.92 186.64 46.56 189.52 40.96 191.76C35.36 193.92 28.88 195 21.52 195L5.68 196.68ZM73.7538 231V147H93.0738V231H73.7538ZM87.7938 231V213.24H129.074V231H87.7938ZM87.7938 197.28V180.12H122.714V197.28H87.7938ZM87.7938 164.76V147H128.474V164.76H87.7938ZM210.228 232.44C201.908 232.44 194.548 230.6 188.148 226.92C181.828 223.16 176.828 218.04 173.148 211.56C169.548 205 167.748 197.48 167.748 189C167.748 180.52 169.548 173.04 173.148 166.56C176.828 160 181.828 154.88 188.148 151.2C194.548 147.44 201.908 145.56 210.228 145.56C216.308 145.56 221.868 146.64 226.908 148.8C232.028 150.88 236.428 153.84 240.108 157.68C243.868 161.52 246.748 165.96 248.748 171L230.628 177.12C229.428 174.32 227.788 171.88 225.708 169.8C223.708 167.72 221.388 166.12 218.748 165C216.188 163.88 213.348 163.32 210.228 163.32C205.828 163.32 201.908 164.4 198.468 166.56C195.028 168.72 192.348 171.76 190.428 175.68C188.508 179.52 187.548 183.96 187.548 189C187.548 194.04 188.508 198.52 190.428 202.44C192.428 206.28 195.148 209.32 198.588 211.56C202.108 213.72 206.108 214.8 210.588 214.8C213.868 214.8 216.788 214.2 219.348 213C221.908 211.8 224.108 210.12 225.948 207.96C227.868 205.8 229.508 203.32 230.868 200.52L248.988 206.64C247.068 211.76 244.228 216.28 240.468 220.2C236.708 224.04 232.268 227.04 227.148 229.2C222.028 231.36 216.388 232.44 210.228 232.44ZM276.296 202.8V185.04H291.896C294.136 185.04 296.136 184.6 297.896 183.72C299.656 182.84 301.016 181.64 301.976 180.12C303.016 178.52 303.536 176.76 303.536 174.84C303.536 171.88 302.416 169.44 300.176 167.52C298.016 165.6 295.136 164.64 291.536 164.64H276.296V147L292.496 146.88C298.576 146.8 303.976 147.96 308.696 150.36C313.416 152.76 317.096 156.08 319.736 160.32C322.456 164.56 323.816 169.4 323.816 174.84C323.816 180.28 322.456 185.12 319.736 189.36C317.016 193.6 313.256 196.92 308.456 199.32C303.736 201.64 298.296 202.8 292.136 202.8H276.296ZM259.496 231V147H278.816V231H259.496ZM305.096 231L286.136 197.64L300.656 186.96L327.176 231H305.096ZM338.012 231V147H357.332V231H338.012ZM352.052 231V213.24H393.332V231H352.052ZM352.052 197.28V180.12H386.972V197.28H352.052ZM352.052 164.76V147H392.732V164.76H352.052ZM466.761 231L435.321 147H454.521L487.161 231H466.761ZM401.241 231L433.881 147H453.081L421.641 231H401.241ZM416.601 215.04V198H471.921V215.04H416.601ZM506.838 231V153.96H526.038V231H506.838ZM482.358 164.76V147H550.518V164.76H482.358ZM560.433 231V147H579.753V231H560.433ZM623.898 231L654.498 147H675.378L642.618 231H623.898ZM621.738 231L588.858 147H609.618L640.458 231H621.738ZM684.418 231V147H703.738V231H684.418ZM698.458 231V213.24H739.738V231H698.458ZM698.458 197.28V180.12H733.378V197.28H698.458ZM698.458 164.76V147H739.138V164.76H698.458ZM762.768 232.8C759.728 232.8 757.128 231.72 754.968 229.56C752.808 227.4 751.728 224.8 751.728 221.76C751.728 218.8 752.808 216.24 754.968 214.08C757.128 211.92 759.728 210.84 762.768 210.84C765.728 210.84 768.288 211.92 770.448 214.08C772.608 216.24 773.688 218.8 773.688 221.76C773.688 224.8 772.608 227.4 770.448 229.56C768.288 231.72 765.728 232.8 762.768 232.8Z" fill="url(#paint0_linear_145_4511)"/>
<defs>
<linearGradient id="paint0_linear_145_4511" x1="-59.2313" y1="-29" x2="755.934" y2="256.272" gradientUnits="userSpaceOnUse">
<stop/>
<stop offset="0.282418" stop-color="#7A7A7A" stop-opacity="0.533106"/>
<stop offset="1" stop-color="#404040"/>
</linearGradient>
</defs>
</svg>
