<svg width="66" height="66" viewBox="0 0 66 66" fill="none" xmlns="http://www.w3.org/2000/svg">
<g clip-path="url(#clip0_145_4101)">
<path fill-rule="evenodd" clip-rule="evenodd" d="M0 33C0 14.7469 14.7469 0 33 0C51.2531 0 66 14.7469 66 33C66 51.2531 51.2531 66 33 66H30.3188V65.8969C13.4062 64.5563 0 50.325 0 33ZM33.825 60.6375C48.675 60.225 60.6375 47.9531 60.6375 33C60.6375 17.7375 48.2625 5.3625 33 5.3625C17.7375 5.3625 5.3625 17.7375 5.3625 33C5.3625 48.2625 17.7375 60.6375 33 60.6375H33.825Z" fill="white"/>
<path fill-rule="evenodd" clip-rule="evenodd" d="M19.5934 8.86895C19.1809 8.76582 18.8715 8.66269 18.459 8.45644L20.2121 3.40332C20.4184 3.50645 20.6246 3.50645 21.0371 3.60957C21.6559 3.81582 22.3777 4.02207 22.7902 4.22832C22.8934 4.22832 22.9965 4.33145 23.2027 4.33145C23.9246 4.64082 24.7496 4.9502 25.4715 5.25957L25.5746 5.3627C25.884 5.56895 26.3996 5.7752 26.8121 5.98145C27.0184 6.08457 27.2246 6.1877 27.4309 6.29082H27.534H27.6371C27.7402 6.39395 28.0496 6.49707 28.359 6.70332H28.4621C28.4621 6.70332 28.5652 6.70332 28.5652 6.80645C28.5652 6.80645 28.6684 6.80645 28.6684 6.90957C28.6684 6.90957 28.6684 6.90957 28.7715 6.90957C28.7715 6.90957 28.7715 6.90957 28.8746 6.90957C28.8746 6.90957 28.9777 6.90957 28.9777 7.0127C29.184 7.11582 29.4934 7.32207 29.6996 7.4252C30.009 7.63144 30.4215 7.8377 30.7309 8.04395C31.0402 8.2502 31.4527 8.55957 31.7621 8.66269L31.8652 8.76582C32.0715 8.86895 32.2777 8.97207 32.3809 9.0752C32.5871 9.17832 32.7934 9.38457 32.9996 9.48769C33.1027 9.59082 33.2059 9.59082 33.2059 9.69394C33.309 9.79707 33.4121 9.79707 33.5152 9.9002C33.6184 10.0033 33.6184 10.0033 33.7215 10.0033C33.7215 10.0033 33.7215 10.0033 33.8246 10.0033H33.9277H34.0309C37.0215 12.2721 39.5996 14.8502 41.8684 17.8408C44.3434 21.1408 46.3027 24.7502 47.6434 28.6689C51.6652 40.0127 50.5309 53.0064 44.1371 63.3189L39.5996 60.5346C45.0652 51.6658 46.0965 40.3221 42.5902 30.4221C41.4559 27.1221 39.7027 23.9252 37.5371 21.1408C35.5777 18.5627 33.309 16.2939 30.7309 14.3346C30.6277 14.2314 30.4215 14.1283 30.3184 14.0252C30.2152 13.9221 30.1121 13.8189 30.009 13.8189C29.9059 13.7158 29.9059 13.7158 29.8027 13.6127C29.5965 13.5096 29.4934 13.3033 29.2871 13.2002C29.184 13.0971 29.0809 13.0971 29.0809 13.0971H28.9777V13.4064C28.8746 13.3033 28.6684 13.2002 28.5652 13.2002C28.359 12.9939 28.1527 12.8908 27.9465 12.7877L27.8434 12.6846L27.7402 12.5814C27.7402 12.5814 27.6371 12.5814 27.534 12.4783C27.4309 12.3752 27.2246 12.2721 27.0184 12.1689C26.8121 12.0658 26.5027 11.8596 26.3996 11.7564C26.2965 11.7564 26.1934 11.6533 26.1934 11.6533L26.0902 11.5502C25.9871 11.5502 25.9871 11.4471 25.884 11.4471C25.884 11.4471 25.7809 11.3439 25.6777 11.3439C25.5746 11.2408 25.4715 11.2408 25.2652 11.1377C25.059 11.0346 24.8527 10.9314 24.6465 10.8283C24.234 10.6221 23.8215 10.4158 23.409 10.3127L23.3059 10.2096C22.7902 10.0033 22.1715 9.79707 21.5527 9.48769C21.2434 9.38457 21.1402 9.28145 20.934 9.28145C20.5215 9.0752 20.109 8.97207 19.5934 8.86895Z" fill="white"/>
<path fill-rule="evenodd" clip-rule="evenodd" d="M30.9377 21.5533C38.9814 20.1096 46.5096 15.5721 51.5627 9.0752L55.7908 12.3752C49.8096 19.9033 41.2502 25.1627 31.8658 26.8127C27.2252 27.6377 22.3783 27.6377 17.7377 26.8127C13.0971 25.9877 8.55957 24.3377 4.43457 21.8627L7.21895 17.3252C10.7252 19.3877 14.6439 20.9346 18.6658 21.6564C22.6877 22.2752 26.8127 22.2752 30.9377 21.5533Z" fill="white"/>
<path fill-rule="evenodd" clip-rule="evenodd" d="M16.6035 60.1228C21.141 36.8165 44.9629 23.9259 64.3504 29.1853L62.9066 34.3415C46.4066 29.804 25.7816 40.9415 21.7598 61.154L16.6035 60.1228Z" fill="white"/>
</g>
<defs>
<clipPath id="clip0_145_4101">
<rect width="66" height="66" fill="white"/>
</clipPath>
</defs>
</svg>
