<svg width="40" height="40" viewBox="0 0 40 40" fill="none" xmlns="http://www.w3.org/2000/svg">
<path d="M11.5875 6.71831C12.6739 6.71831 13.7602 6.82193 14.7948 7.02918C15.6742 7.23642 16.5019 7.59909 17.2778 8.11719C17.9503 8.6353 18.5193 9.30884 18.8815 10.086C19.2953 11.0704 19.5022 12.1066 19.4505 13.1428C19.5022 14.2826 19.1918 15.4225 18.6228 16.4069C18.002 17.3395 17.1226 18.0648 16.1398 18.5311C17.5365 18.8938 18.7263 19.7745 19.5022 20.9144C20.2782 22.1578 20.6403 23.6085 20.6403 25.0592C20.6403 26.2508 20.4334 27.3907 19.9161 28.4269C19.4505 29.3595 18.778 30.1366 18.002 30.8102C17.1744 31.4319 16.1915 31.8982 15.2086 32.1572C14.174 32.4681 13.0877 32.5717 12.0014 32.5717H0V6.6665H11.5875V6.71831ZM10.8633 17.184C11.691 17.2358 12.5704 16.9768 13.2429 16.4587C13.9154 15.8888 14.2775 15.008 14.174 14.0754C14.174 13.5573 14.0706 13.0392 13.8636 12.5729C13.6567 12.2102 13.3981 11.8994 13.036 11.6921C12.6739 11.4849 12.26 11.2776 11.8462 11.2258C11.3806 11.1222 10.915 11.1222 10.4495 11.1222H5.37992V17.184H10.8633ZM11.1737 28.2715C11.691 28.2715 12.2083 28.2196 12.6739 28.116C13.1394 28.0124 13.5533 27.8052 13.9671 27.5461C14.3292 27.2871 14.6396 26.9244 14.8465 26.5099C15.1052 25.9918 15.2086 25.4219 15.1569 24.852C15.2604 23.7639 14.8465 22.7277 14.0706 22.0024C13.2429 21.3807 12.26 21.1216 11.2254 21.1734H5.37992V28.3233H11.1737V28.2715Z" fill="white"/>
<path d="M28.2964 28.1679C29.1759 28.945 30.3139 29.3595 31.452 29.3077C32.3831 29.3077 33.2625 29.0487 33.9867 28.5306C34.6075 28.1161 35.0213 27.5462 35.28 26.8726H39.5736C39.108 28.7896 37.97 30.4994 36.4181 31.691C34.9179 32.7272 33.1073 33.1935 31.2451 33.1417C29.9518 33.1417 28.6586 32.9345 27.417 32.4164C26.3307 31.9501 25.3478 31.2765 24.5719 30.3957C23.7959 29.4632 23.1752 28.4269 22.7613 27.2871C22.2958 25.9919 22.0888 24.6448 22.1406 23.2977C22.1406 21.9506 22.3475 20.6554 22.8131 19.3601C24.0546 15.7334 27.4688 13.2983 31.2968 13.3501C32.6935 13.2983 34.0385 13.661 35.28 14.2827C36.3663 14.9044 37.3492 15.7334 38.0734 16.7696C38.7976 17.8576 39.3667 19.0493 39.6253 20.3445C39.9357 21.6916 40.0392 23.1423 39.9874 24.5412H27.1584C27.0032 25.8364 27.417 27.1317 28.2964 28.1679ZM33.8833 18.2721C33.1591 17.5468 32.1762 17.1841 31.1416 17.2359C30.4691 17.2359 29.7966 17.3395 29.2276 17.6504C28.762 17.9094 28.3482 18.2721 27.9861 18.6866C27.6757 19.1011 27.4688 19.5155 27.3136 20.0337C27.2101 20.4481 27.1067 20.8626 27.1067 21.2771H35.0731C34.9696 20.1891 34.5558 19.1529 33.8833 18.2721Z" fill="white"/>
<path d="M36.0039 8.42773H26.0718V10.9664H36.0039V8.42773Z" fill="white"/>
</svg>
