<svg width="928" height="938" viewBox="0 0 928 938" fill="none" xmlns="http://www.w3.org/2000/svg">
<g filter="url(#filter0_f_678_531)">
<path d="M450.549 355.686C458.264 348.983 469.736 348.983 477.451 355.686L489.107 365.812C493.304 369.458 498.802 371.244 504.34 370.761L519.722 369.42C529.903 368.533 539.185 375.276 541.487 385.233L544.965 400.277C546.217 405.693 549.615 410.37 554.379 413.234L567.612 421.191C576.37 426.457 579.915 437.368 575.925 446.777L569.896 460.992C567.726 466.11 567.726 471.89 569.896 477.008L575.925 491.223C579.915 500.632 576.37 511.543 567.612 516.809L554.379 524.766C549.615 527.63 546.217 532.307 544.965 537.723L541.487 552.767C539.185 562.724 529.903 569.467 519.722 568.58L504.34 567.239C498.802 566.756 493.304 568.542 489.107 572.188L477.451 582.314C469.736 589.017 458.264 589.017 450.549 582.314L438.893 572.188C434.696 568.542 429.198 566.756 423.66 567.239L408.278 568.58C398.097 569.467 388.815 562.724 386.513 552.767L383.035 537.723C381.783 532.307 378.385 527.63 373.621 524.766L360.388 516.809C351.63 511.543 348.085 500.632 352.075 491.223L358.104 477.008C360.274 471.89 360.274 466.11 358.104 460.992L352.075 446.777C348.085 437.368 351.63 426.457 360.388 421.191L373.621 413.235C378.385 410.37 381.783 405.693 383.035 400.277L386.513 385.233C388.815 375.276 398.097 368.533 408.278 369.42L423.66 370.761C429.198 371.244 434.696 369.458 438.893 365.812L450.549 355.686Z" fill="#C671BD" fill-opacity="0.6"/>
</g>
<defs>
<filter id="filter0_f_678_531" x="0.444336" y="0.658813" width="927.111" height="936.682" filterUnits="userSpaceOnUse" color-interpolation-filters="sRGB">
<feFlood flood-opacity="0" result="BackgroundImageFix"/>
<feBlend mode="normal" in="SourceGraphic" in2="BackgroundImageFix" result="shape"/>
<feGaussianBlur stdDeviation="175" result="effect1_foregroundBlur_678_531"/>
</filter>
</defs>
</svg>
