<svg width="600" height="600" viewBox="0 0 600 600" fill="none" xmlns="http://www.w3.org/2000/svg">
<path d="M249.247 44.7537C278.357 19.4646 321.643 19.4646 350.753 44.7537C366.793 58.6883 387.803 65.5147 408.97 63.6694C447.385 60.3206 482.404 85.7636 491.09 123.333C495.876 144.035 508.861 161.907 527.07 172.855C560.117 192.726 573.493 233.894 558.437 269.394C550.141 288.955 550.141 311.045 558.437 330.606C573.493 366.106 560.117 407.274 527.07 427.145C508.861 438.093 495.876 455.965 491.09 476.667C482.404 514.236 447.385 539.679 408.97 536.331C387.803 534.485 366.793 541.312 350.753 555.246C321.643 580.535 278.357 580.535 249.247 555.246C233.207 541.312 212.197 534.485 191.03 536.331C152.615 539.679 117.596 514.236 108.91 476.667C104.124 455.965 91.1391 438.093 72.9299 427.145C39.883 407.274 26.5069 366.106 41.5627 330.606C49.8587 311.045 49.8587 288.955 41.5627 269.394C26.5069 233.894 39.883 192.726 72.9299 172.855C91.1391 161.907 104.124 144.035 108.91 123.333C117.596 85.7636 152.615 60.3206 191.03 63.6694C212.197 65.5147 233.207 58.6883 249.247 44.7537Z" fill="white"/>
<path d="M249.247 44.7537C278.357 19.4646 321.643 19.4646 350.753 44.7537C366.793 58.6883 387.803 65.5147 408.97 63.6694C447.385 60.3206 482.404 85.7636 491.09 123.333C495.876 144.035 508.861 161.907 527.07 172.855C560.117 192.726 573.493 233.894 558.437 269.394C550.141 288.955 550.141 311.045 558.437 330.606C573.493 366.106 560.117 407.274 527.07 427.145C508.861 438.093 495.876 455.965 491.09 476.667C482.404 514.236 447.385 539.679 408.97 536.331C387.803 534.485 366.793 541.312 350.753 555.246C321.643 580.535 278.357 580.535 249.247 555.246C233.207 541.312 212.197 534.485 191.03 536.331C152.615 539.679 117.596 514.236 108.91 476.667C104.124 455.965 91.1391 438.093 72.9299 427.145C39.883 407.274 26.5069 366.106 41.5627 330.606C49.8587 311.045 49.8587 288.955 41.5627 269.394C26.5069 233.894 39.883 192.726 72.9299 172.855C91.1391 161.907 104.124 144.035 108.91 123.333C117.596 85.7636 152.615 60.3206 191.03 63.6694C212.197 65.5147 233.207 58.6883 249.247 44.7537Z" fill="url(#paint0_linear_145_4230)"/>
<path d="M249.247 44.7537C278.357 19.4646 321.643 19.4646 350.753 44.7537C366.793 58.6883 387.803 65.5147 408.97 63.6694C447.385 60.3206 482.404 85.7636 491.09 123.333C495.876 144.035 508.861 161.907 527.07 172.855C560.117 192.726 573.493 233.894 558.437 269.394C550.141 288.955 550.141 311.045 558.437 330.606C573.493 366.106 560.117 407.274 527.07 427.145C508.861 438.093 495.876 455.965 491.09 476.667C482.404 514.236 447.385 539.679 408.97 536.331C387.803 534.485 366.793 541.312 350.753 555.246C321.643 580.535 278.357 580.535 249.247 555.246C233.207 541.312 212.197 534.485 191.03 536.331C152.615 539.679 117.596 514.236 108.91 476.667C104.124 455.965 91.1391 438.093 72.9299 427.145C39.883 407.274 26.5069 366.106 41.5627 330.606C49.8587 311.045 49.8587 288.955 41.5627 269.394C26.5069 233.894 39.883 192.726 72.9299 172.855C91.1391 161.907 104.124 144.035 108.91 123.333C117.596 85.7636 152.615 60.3206 191.03 63.6694C212.197 65.5147 233.207 58.6883 249.247 44.7537Z" fill="url(#paint1_linear_145_4230)"/>
<path d="M249.247 44.7537C278.357 19.4646 321.643 19.4646 350.753 44.7537C366.793 58.6883 387.803 65.5147 408.97 63.6694C447.385 60.3206 482.404 85.7636 491.09 123.333C495.876 144.035 508.861 161.907 527.07 172.855C560.117 192.726 573.493 233.894 558.437 269.394C550.141 288.955 550.141 311.045 558.437 330.606C573.493 366.106 560.117 407.274 527.07 427.145C508.861 438.093 495.876 455.965 491.09 476.667C482.404 514.236 447.385 539.679 408.97 536.331C387.803 534.485 366.793 541.312 350.753 555.246C321.643 580.535 278.357 580.535 249.247 555.246C233.207 541.312 212.197 534.485 191.03 536.331C152.615 539.679 117.596 514.236 108.91 476.667C104.124 455.965 91.1391 438.093 72.9299 427.145C39.883 407.274 26.5069 366.106 41.5627 330.606C49.8587 311.045 49.8587 288.955 41.5627 269.394C26.5069 233.894 39.883 192.726 72.9299 172.855C91.1391 161.907 104.124 144.035 108.91 123.333C117.596 85.7636 152.615 60.3206 191.03 63.6694C212.197 65.5147 233.207 58.6883 249.247 44.7537Z" stroke="url(#paint2_linear_145_4230)"/>
<g clip-path="url(#clip0_145_4230)">
<path d="M368.805 272.974C367.455 266.577 361.703 262.066 355.174 262.066H309.758C309.709 262.127 309.661 262.2 309.612 262.248C309.563 262.188 309.515 262.127 309.478 262.066H257.91C258.104 263.124 258.214 264.218 258.214 265.373C258.214 269.921 256.609 273.825 253.386 277.035C250.249 280.257 246.395 281.863 241.835 281.863C240.801 281.863 239.792 281.777 238.819 281.607V346.494H260.95V297.051C260.95 287.018 262.372 279.686 265.23 275.041C268.075 270.383 272.611 268.049 278.836 268.049C288.661 268.049 293.586 276.573 293.586 293.609V346.481H315.801V297.051C315.801 286.897 317.187 279.528 319.984 274.931C322.769 270.347 327.207 268.049 333.299 268.049C338.54 268.049 342.309 269.994 344.607 273.849C346.832 277.655 347.951 284.137 347.951 293.317V346.481H370.167V287.31C370.167 281.984 369.717 277.205 368.829 272.961L368.805 272.974Z" fill="white"/>
<path d="M249.763 257.117C247.586 254.941 244.948 253.846 241.859 253.846C238.77 253.846 236.217 254.941 234.04 257.117C231.864 259.294 230.77 261.884 230.77 264.863C230.77 268.013 231.864 270.664 234.04 272.84C236.205 275.017 238.856 276.111 241.932 276.111C245.008 276.111 247.635 275.017 249.763 272.84C251.939 270.664 253.034 268.025 253.034 264.936C253.034 261.848 251.939 259.233 249.763 257.105V257.117Z" fill="white"/>
</g>
<defs>
<linearGradient id="paint0_linear_145_4230" x1="-13.6986" y1="407.143" x2="600.076" y2="407.8" gradientUnits="userSpaceOnUse">
<stop stop-color="white"/>
<stop offset="0.489583" stop-color="#B4B4B4"/>
<stop offset="1" stop-color="white"/>
</linearGradient>
<linearGradient id="paint1_linear_145_4230" x1="300" y1="26.7692" x2="300" y2="600" gradientUnits="userSpaceOnUse">
<stop stop-color="white"/>
<stop offset="0.451599" stop-color="#5A61FF"/>
<stop offset="1"/>
</linearGradient>
<linearGradient id="paint2_linear_145_4230" x1="471" y1="525.375" x2="113.25" y2="55.5" gradientUnits="userSpaceOnUse">
<stop stop-color="#4C52D7"/>
<stop offset="1" stop-color="#BEBEBE"/>
</linearGradient>
<clipPath id="clip0_145_4230">
<rect width="139.385" height="92.6358" fill="white" transform="translate(230.77 253.846)"/>
</clipPath>
</defs>
</svg>
