<svg width="209" height="208" viewBox="0 0 209 208" fill="none" xmlns="http://www.w3.org/2000/svg">
<g filter="url(#filter0_f_145_4344)">
<circle cx="69.625" cy="137.876" r="19.125" fill="#0ACF83" fill-opacity="0.35"/>
</g>
<g filter="url(#filter1_f_145_4344)">
<circle cx="139.375" cy="70.376" r="19.125" fill="#FF7262" fill-opacity="0.35"/>
</g>
<rect x="46" y="46" width="120" height="120" rx="24" fill="#DBDCFF" fill-opacity="0.07"/>
<rect x="46.3438" y="46.3438" width="119.312" height="119.312" rx="23.6562" stroke="#5A61FF" stroke-opacity="0.34" stroke-width="0.6875"/>
<g clip-path="url(#clip0_145_4344)">
<path d="M105.75 106.376C105.75 101.114 110.015 96.8486 115.277 96.8486C120.539 96.8486 124.804 101.114 124.804 106.376C124.804 111.637 120.539 115.903 115.277 115.903C110.015 115.903 105.75 111.637 105.75 106.376Z" fill="#1ABCFE"/>
<path d="M86.6963 125.43C86.6963 120.169 90.9617 115.903 96.2233 115.903H105.75V125.43C105.75 130.692 101.485 134.957 96.2233 134.957C90.9617 134.957 86.6963 130.692 86.6963 125.43Z" fill="#0ACF83"/>
<path d="M105.75 77.7949V96.8489H115.277C120.539 96.8489 124.804 92.5835 124.804 87.3219C124.804 82.0603 120.539 77.7949 115.277 77.7949H105.75Z" fill="#FF7262"/>
<path d="M86.6963 87.3217C86.6963 92.5833 90.9617 96.8486 96.2233 96.8486H105.75V77.7947H96.2233C90.9617 77.7947 86.6963 82.0601 86.6963 87.3217Z" fill="#F24E1E"/>
<path d="M86.6963 106.376C86.6963 111.637 90.9617 115.903 96.2233 115.903H105.75V96.8486H96.2233C90.9617 96.8486 86.6963 101.114 86.6963 106.376Z" fill="#A259FF"/>
</g>
<defs>
<filter id="filter0_f_145_4344" x="0.0374985" y="68.2885" width="139.175" height="139.175" filterUnits="userSpaceOnUse" color-interpolation-filters="sRGB">
<feFlood flood-opacity="0" result="BackgroundImageFix"/>
<feBlend mode="normal" in="SourceGraphic" in2="BackgroundImageFix" result="shape"/>
<feGaussianBlur stdDeviation="25.2313" result="effect1_foregroundBlur_145_4344"/>
</filter>
<filter id="filter1_f_145_4344" x="69.7875" y="0.788475" width="139.175" height="139.175" filterUnits="userSpaceOnUse" color-interpolation-filters="sRGB">
<feFlood flood-opacity="0" result="BackgroundImageFix"/>
<feBlend mode="normal" in="SourceGraphic" in2="BackgroundImageFix" result="shape"/>
<feGaussianBlur stdDeviation="25.2313" result="effect1_foregroundBlur_145_4344"/>
</filter>
<clipPath id="clip0_145_4344">
<rect width="38.5" height="57.75" fill="white" transform="translate(86.5 77.501)"/>
</clipPath>
</defs>
</svg>
