<svg width="600" height="600" viewBox="0 0 600 600" fill="none" xmlns="http://www.w3.org/2000/svg">
<path d="M249.165 44.6593C278.322 19.3294 321.678 19.3294 350.835 44.6593C366.85 58.5717 387.826 65.3872 408.959 63.5449C447.436 60.1906 482.512 85.6747 491.212 123.305C495.99 143.974 508.954 161.817 527.135 172.748C560.235 192.651 573.633 233.885 558.552 269.442C550.27 288.972 550.27 311.028 558.552 330.558C573.633 366.115 560.235 407.349 527.135 427.252C508.954 438.183 495.99 456.026 491.212 476.695C482.512 514.325 447.436 539.809 408.959 536.455C387.826 534.613 366.85 541.428 350.835 555.341C321.678 580.671 278.322 580.671 249.165 555.341C233.15 541.428 212.174 534.613 191.041 536.455C152.564 539.809 117.488 514.325 108.788 476.695C104.01 456.026 91.0457 438.183 72.8655 427.252C39.7652 407.349 26.3675 366.115 41.4476 330.558C49.7304 311.028 49.7304 288.972 41.4476 269.442C26.3675 233.885 39.7652 192.651 72.8655 172.748C91.0457 161.817 104.01 143.974 108.788 123.305C117.488 85.6747 152.564 60.1906 191.041 63.5449C212.174 65.3872 233.15 58.5717 249.165 44.6593Z" fill="white"/>
<path d="M249.165 44.6593C278.322 19.3294 321.678 19.3294 350.835 44.6593C366.85 58.5717 387.826 65.3872 408.959 63.5449C447.436 60.1906 482.512 85.6747 491.212 123.305C495.99 143.974 508.954 161.817 527.135 172.748C560.235 192.651 573.633 233.885 558.552 269.442C550.27 288.972 550.27 311.028 558.552 330.558C573.633 366.115 560.235 407.349 527.135 427.252C508.954 438.183 495.99 456.026 491.212 476.695C482.512 514.325 447.436 539.809 408.959 536.455C387.826 534.613 366.85 541.428 350.835 555.341C321.678 580.671 278.322 580.671 249.165 555.341C233.15 541.428 212.174 534.613 191.041 536.455C152.564 539.809 117.488 514.325 108.788 476.695C104.01 456.026 91.0457 438.183 72.8655 427.252C39.7652 407.349 26.3675 366.115 41.4476 330.558C49.7304 311.028 49.7304 288.972 41.4476 269.442C26.3675 233.885 39.7652 192.651 72.8655 172.748C91.0457 161.817 104.01 143.974 108.788 123.305C117.488 85.6747 152.564 60.1906 191.041 63.5449C212.174 65.3872 233.15 58.5717 249.165 44.6593Z" fill="url(#paint0_linear_145_4220)"/>
<path d="M249.165 44.6593C278.322 19.3294 321.678 19.3294 350.835 44.6593C366.85 58.5717 387.826 65.3872 408.959 63.5449C447.436 60.1906 482.512 85.6747 491.212 123.305C495.99 143.974 508.954 161.817 527.135 172.748C560.235 192.651 573.633 233.885 558.552 269.442C550.27 288.972 550.27 311.028 558.552 330.558C573.633 366.115 560.235 407.349 527.135 427.252C508.954 438.183 495.99 456.026 491.212 476.695C482.512 514.325 447.436 539.809 408.959 536.455C387.826 534.613 366.85 541.428 350.835 555.341C321.678 580.671 278.322 580.671 249.165 555.341C233.15 541.428 212.174 534.613 191.041 536.455C152.564 539.809 117.488 514.325 108.788 476.695C104.01 456.026 91.0457 438.183 72.8655 427.252C39.7652 407.349 26.3675 366.115 41.4476 330.558C49.7304 311.028 49.7304 288.972 41.4476 269.442C26.3675 233.885 39.7652 192.651 72.8655 172.748C91.0457 161.817 104.01 143.974 108.788 123.305C117.488 85.6747 152.564 60.1906 191.041 63.5449C212.174 65.3872 233.15 58.5717 249.165 44.6593Z" fill="url(#paint1_linear_145_4220)"/>
<path d="M249.165 44.6593C278.322 19.3294 321.678 19.3294 350.835 44.6593C366.85 58.5717 387.826 65.3872 408.959 63.5449C447.436 60.1906 482.512 85.6747 491.212 123.305C495.99 143.974 508.954 161.817 527.135 172.748C560.235 192.651 573.633 233.885 558.552 269.442C550.27 288.972 550.27 311.028 558.552 330.558C573.633 366.115 560.235 407.349 527.135 427.252C508.954 438.183 495.99 456.026 491.212 476.695C482.512 514.325 447.436 539.809 408.959 536.455C387.826 534.613 366.85 541.428 350.835 555.341C321.678 580.671 278.322 580.671 249.165 555.341C233.15 541.428 212.174 534.613 191.041 536.455C152.564 539.809 117.488 514.325 108.788 476.695C104.01 456.026 91.0457 438.183 72.8655 427.252C39.7652 407.349 26.3675 366.115 41.4476 330.558C49.7304 311.028 49.7304 288.972 41.4476 269.442C26.3675 233.885 39.7652 192.651 72.8655 172.748C91.0457 161.817 104.01 143.974 108.788 123.305C117.488 85.6747 152.564 60.1906 191.041 63.5449C212.174 65.3872 233.15 58.5717 249.165 44.6593Z" stroke="url(#paint2_linear_145_4220)" stroke-width="0.75"/>
<g clip-path="url(#clip0_145_4220)">
<path d="M368.805 272.974C367.455 266.577 361.703 262.066 355.174 262.066H309.758C309.709 262.127 309.661 262.2 309.612 262.248C309.563 262.188 309.515 262.127 309.478 262.066H257.91C258.104 263.124 258.214 264.218 258.214 265.373C258.214 269.921 256.609 273.825 253.386 277.035C250.249 280.257 246.395 281.863 241.835 281.863C240.801 281.863 239.792 281.777 238.819 281.607V346.494H260.95V297.051C260.95 287.018 262.372 279.686 265.23 275.041C268.075 270.383 272.611 268.049 278.836 268.049C288.661 268.049 293.586 276.573 293.586 293.609V346.481H315.801V297.051C315.801 286.897 317.187 279.528 319.984 274.931C322.769 270.347 327.207 268.049 333.299 268.049C338.54 268.049 342.309 269.994 344.607 273.849C346.832 277.655 347.951 284.137 347.951 293.317V346.481H370.167V287.31C370.167 281.984 369.717 277.205 368.829 272.961L368.805 272.974Z" fill="black"/>
<path d="M249.763 257.117C247.586 254.941 244.948 253.846 241.859 253.846C238.77 253.846 236.217 254.941 234.04 257.117C231.864 259.294 230.77 261.884 230.77 264.863C230.77 268.013 231.864 270.664 234.04 272.84C236.205 275.017 238.856 276.111 241.932 276.111C245.008 276.111 247.635 275.017 249.763 272.84C251.939 270.664 253.034 268.025 253.034 264.936C253.034 261.848 251.939 259.233 249.763 257.105V257.117Z" fill="black"/>
</g>
<defs>
<linearGradient id="paint0_linear_145_4220" x1="-13.6986" y1="407.143" x2="600.076" y2="407.8" gradientUnits="userSpaceOnUse">
<stop stop-color="white"/>
<stop offset="0.489583" stop-color="#B4B4B4"/>
<stop offset="1" stop-color="white"/>
</linearGradient>
<linearGradient id="paint1_linear_145_4220" x1="300" y1="26.7692" x2="300" y2="600" gradientUnits="userSpaceOnUse">
<stop stop-color="#5F5F5F"/>
<stop offset="0.451599" stop-color="white"/>
<stop offset="1" stop-color="#3F3E3E"/>
</linearGradient>
<linearGradient id="paint2_linear_145_4220" x1="471" y1="525.375" x2="113.25" y2="55.5" gradientUnits="userSpaceOnUse">
<stop stop-color="#E0E0E0"/>
<stop offset="1" stop-color="#959595"/>
</linearGradient>
<clipPath id="clip0_145_4220">
<rect width="139.385" height="92.6358" fill="white" transform="translate(230.77 253.846)"/>
</clipPath>
</defs>
</svg>
