<svg width="130" height="55" viewBox="0 0 130 55" fill="none" xmlns="http://www.w3.org/2000/svg">
<path d="M6.85487 25.5083H11.8305C14.8193 14.2417 16.1467 9.60833 16.4806 6.625C16.8146 9.60833 18.142 14.575 21.1307 25.5083H26.1064L33.0773 0H28.4272C25.4385 11.6 24.1111 16.2333 23.7771 19.2167C23.1093 15.9 21.7819 10.6 19.1271 0H14.477C11.4882 11.6 10.1609 16.5667 9.82692 19.55C9.15904 16.5667 7.83164 11.2667 4.85125 0H0.201172L6.85487 25.5083Z" fill="black"/>
<path d="M40.7078 25.8417C44.356 25.8417 48.0127 23.85 49.3401 20.875L46.0174 19.2167C45.6834 20.2084 44.0221 22.2 41.0417 22.2C38.053 22.2 36.0661 20.5417 35.7321 17.8917H50.3335V17.5584C50.3335 13.9167 49.3401 10.9334 47.6787 8.94169C46.0174 7.28335 43.6965 6.29169 41.0417 6.29169C38.3869 6.29169 36.0661 7.28335 34.0708 9.27502C32.4094 10.9334 31.416 13.5834 31.416 16.2334C31.082 21.8667 35.0726 25.8417 40.7078 25.8417ZM40.3822 10.275C43.037 10.275 45.0323 11.9334 45.3579 14.25H35.3982C35.7321 11.925 37.7274 10.275 40.3822 10.275Z" fill="black"/>
<path d="M59.2989 25.8417C63.949 25.8417 66.9294 23.525 66.9294 20.2083C66.9294 15.9 62.9472 14.9083 59.9584 14.2417C57.9632 13.575 55.9763 13.25 55.9763 11.925C55.9763 10.9333 56.9697 9.93333 58.6311 9.93333C60.2924 9.93333 61.6198 10.925 61.9537 12.25V12.9167L65.602 12.25C65.602 8.60833 62.6133 6.28333 58.2971 6.28333C53.981 6.28333 51.3262 8.59999 51.3262 11.9167C51.3262 15.8917 54.9744 16.8833 57.9632 17.55C60.284 18.2167 61.9454 18.5417 61.9454 20.2C61.9454 21.525 60.618 22.1917 58.9566 22.1917C56.6358 22.1917 54.9744 21.2 54.9744 19.2083V18.875L51.3262 19.8667C51.3345 23.8583 55.6507 25.8417 59.2989 25.8417Z" fill="black"/>
<path d="M70.253 22.2C70.253 24.1917 71.5804 26.175 73.9013 26.175C76.5561 26.175 77.5496 25.8417 77.5496 25.8417V22.2C77.5496 22.2 76.8817 22.2 75.5543 22.2C74.8864 22.2 74.5608 21.8667 74.5608 21.2083V10.275H77.5496V6.62501H74.5608V1.32501L70.2447 2.31668V6.62501H67.9238V10.2667H70.2447V22.2H70.253Z" fill="black"/>
<path d="M103.113 9.275V6.95834H99.4648V25.8417H103.781V14.25C103.781 13.2583 104.115 12.2583 104.774 11.6C105.768 10.9333 107.095 10.6083 109.091 10.9333H109.425V6.95834H109.091C106.77 6.29167 104.441 7.29167 103.113 9.275Z" fill="black"/>
<path d="M121.705 6.625C119.05 6.625 116.396 7.61667 115.402 9.60833V6.95833H111.42V25.8417H115.736V15.9C115.736 12.5833 117.397 10.6 120.386 10.6C122.381 10.6 124.702 11.5917 124.702 15.5667V25.8417H129.018V14.9083C129.002 8.61667 125.353 6.625 121.705 6.625Z" fill="black"/>
<path d="M18.1422 44.0667C18.1422 48.375 16.147 50.6917 12.4987 50.6917C8.85043 50.6917 6.85515 48.375 6.85515 44.0667V29.1583H2.20508V44.0667C2.20508 51.025 6.18728 55 12.4987 55C18.8101 55 22.7923 51.025 22.7923 44.0667V29.1583H18.1422V44.0667Z" fill="black"/>
<path d="M35.3985 35.45C32.7437 35.45 30.089 36.4417 29.0955 38.4333V35.7833H25.1133V54.6667H29.4294V44.725C29.4294 41.4083 31.0908 39.425 34.0795 39.425C36.0748 39.425 38.3956 40.4167 38.3956 44.3917V54.6667H42.7118V43.7333C42.7034 37.4417 39.0552 35.45 35.3985 35.45Z" fill="black"/>
<path d="M50.0075 35.7833H45.6914V54.6667H50.0075V35.7833Z" fill="black"/>
<path d="M47.6782 28.825C46.3508 28.825 45.0234 29.8167 45.0234 31.475C45.0234 32.8 46.0169 34.125 47.6782 34.125C49.0056 34.125 50.333 33.1333 50.333 31.475C50.3414 29.8167 49.3396 28.825 47.6782 28.825Z" fill="black"/>
<path d="M61.9539 35.45C59.2991 35.45 56.6443 36.4417 54.9829 38.1C53.3216 39.7583 52.3281 42.4083 52.3281 45.0583C52.3281 50.6917 56.6443 54.6667 62.2878 54.6667C67.9314 54.6667 72.2475 50.6917 72.2475 45.0583C72.2475 42.4083 71.254 39.7583 69.2587 38.1C67.2635 36.4417 64.9426 35.45 61.9539 35.45ZM61.9539 50.6917C58.6312 50.6917 56.3103 48.375 56.3103 45.0583C56.3103 41.7417 58.6312 39.425 61.9539 39.425C65.2765 39.425 67.5974 41.7417 67.5974 45.0583C67.5974 48.375 65.2765 50.6917 61.9539 50.6917Z" fill="black"/>
<path d="M84.1954 35.45C81.5406 35.45 78.8858 36.4417 77.8924 38.4333V35.7833H73.9102V54.6667H78.2263V44.725C78.2263 41.4083 79.8876 39.425 82.8764 39.425C84.8717 39.425 87.1925 40.4167 87.1925 44.3917V54.6667H91.5087V43.7333C91.8259 37.4417 87.8437 35.45 84.1954 35.45Z" fill="black"/>
<path d="M88.1765 6.625C85.5217 6.625 83.2009 7.61667 81.2056 9.60833C79.5443 11.2667 78.5508 13.9167 78.5508 16.5667C78.5508 22.2 82.533 26.175 88.1765 26.175C91.8248 26.175 95.4814 24.1833 96.8088 21.2083L93.4861 19.55C93.1522 20.5417 91.4909 22.5333 88.5105 22.5333C85.5301 22.5333 83.5348 20.875 83.2009 18.225H97.8023V17.8917C97.8023 14.25 96.8088 11.2667 95.1475 9.275C93.1522 7.29167 90.8313 6.625 88.1765 6.625ZM82.8669 14.25C83.2009 11.9333 85.1878 10.275 87.8426 10.275C90.4974 10.275 92.4927 11.9333 92.8182 14.25H82.8669Z" fill="black"/>
</svg>
