<svg width="287" height="288" viewBox="0 0 287 288" fill="none" xmlns="http://www.w3.org/2000/svg">
<path d="M119.223 21.9072C133.147 9.81055 153.853 9.81055 167.777 21.9072C175.449 28.5726 185.499 31.8379 195.624 30.9552C213.999 29.3533 230.75 41.5236 234.905 59.4944C237.194 69.3966 243.405 77.9453 252.115 83.1825C267.923 92.6873 274.321 112.379 267.119 129.36C263.151 138.717 263.151 149.283 267.119 158.64C274.321 175.621 267.923 195.313 252.115 204.817C243.405 210.055 237.194 218.603 234.905 228.506C230.75 246.476 213.999 258.647 195.624 257.045C185.499 256.162 175.449 259.427 167.777 266.093C153.853 278.189 133.147 278.189 119.223 266.093C111.551 259.427 101.501 256.162 91.3761 257.045C73.0009 258.647 56.25 246.476 52.0952 228.506C49.8059 218.603 43.5949 210.055 34.8848 204.817C19.0774 195.313 12.6791 175.621 19.8808 158.64C23.8491 149.283 23.8491 138.717 19.8808 129.36C12.6791 112.379 19.0774 92.6873 34.8848 83.1825C43.5949 77.9453 49.8059 69.3966 52.0952 59.4945C56.25 41.5236 73.0009 29.3533 91.3761 30.9552C101.501 31.8379 111.551 28.5726 119.223 21.9072Z" fill="white"/>
<path d="M119.223 21.9072C133.147 9.81055 153.853 9.81055 167.777 21.9072C175.449 28.5726 185.499 31.8379 195.624 30.9552C213.999 29.3533 230.75 41.5236 234.905 59.4944C237.194 69.3966 243.405 77.9453 252.115 83.1825C267.923 92.6873 274.321 112.379 267.119 129.36C263.151 138.717 263.151 149.283 267.119 158.64C274.321 175.621 267.923 195.313 252.115 204.817C243.405 210.055 237.194 218.603 234.905 228.506C230.75 246.476 213.999 258.647 195.624 257.045C185.499 256.162 175.449 259.427 167.777 266.093C153.853 278.189 133.147 278.189 119.223 266.093C111.551 259.427 101.501 256.162 91.3761 257.045C73.0009 258.647 56.25 246.476 52.0952 228.506C49.8059 218.603 43.5949 210.055 34.8848 204.817C19.0774 195.313 12.6791 175.621 19.8808 158.64C23.8491 149.283 23.8491 138.717 19.8808 129.36C12.6791 112.379 19.0774 92.6873 34.8848 83.1825C43.5949 77.9453 49.8059 69.3966 52.0952 59.4945C56.25 41.5236 73.0009 29.3533 91.3761 30.9552C101.501 31.8379 111.551 28.5726 119.223 21.9072Z" fill="url(#paint0_linear_74_356)"/>
<path d="M119.223 21.9072C133.147 9.81055 153.853 9.81055 167.777 21.9072C175.449 28.5726 185.499 31.8379 195.624 30.9552C213.999 29.3533 230.75 41.5236 234.905 59.4944C237.194 69.3966 243.405 77.9453 252.115 83.1825C267.923 92.6873 274.321 112.379 267.119 129.36C263.151 138.717 263.151 149.283 267.119 158.64C274.321 175.621 267.923 195.313 252.115 204.817C243.405 210.055 237.194 218.603 234.905 228.506C230.75 246.476 213.999 258.647 195.624 257.045C185.499 256.162 175.449 259.427 167.777 266.093C153.853 278.189 133.147 278.189 119.223 266.093C111.551 259.427 101.501 256.162 91.3761 257.045C73.0009 258.647 56.25 246.476 52.0952 228.506C49.8059 218.603 43.5949 210.055 34.8848 204.817C19.0774 195.313 12.6791 175.621 19.8808 158.64C23.8491 149.283 23.8491 138.717 19.8808 129.36C12.6791 112.379 19.0774 92.6873 34.8848 83.1825C43.5949 77.9453 49.8059 69.3966 52.0952 59.4945C56.25 41.5236 73.0009 29.3533 91.3761 30.9552C101.501 31.8379 111.551 28.5726 119.223 21.9072Z" fill="url(#paint1_linear_74_356)"/>
<path d="M119.223 21.9072C133.147 9.81055 153.853 9.81055 167.777 21.9072C175.449 28.5726 185.499 31.8379 195.624 30.9552C213.999 29.3533 230.75 41.5236 234.905 59.4944C237.194 69.3966 243.405 77.9453 252.115 83.1825C267.923 92.6873 274.321 112.379 267.119 129.36C263.151 138.717 263.151 149.283 267.119 158.64C274.321 175.621 267.923 195.313 252.115 204.817C243.405 210.055 237.194 218.603 234.905 228.506C230.75 246.476 213.999 258.647 195.624 257.045C185.499 256.162 175.449 259.427 167.777 266.093C153.853 278.189 133.147 278.189 119.223 266.093C111.551 259.427 101.501 256.162 91.3761 257.045C73.0009 258.647 56.25 246.476 52.0952 228.506C49.8059 218.603 43.5949 210.055 34.8848 204.817C19.0774 195.313 12.6791 175.621 19.8808 158.64C23.8491 149.283 23.8491 138.717 19.8808 129.36C12.6791 112.379 19.0774 92.6873 34.8848 83.1825C43.5949 77.9453 49.8059 69.3966 52.0952 59.4945C56.25 41.5236 73.0009 29.3533 91.3761 30.9552C101.501 31.8379 111.551 28.5726 119.223 21.9072Z" stroke="url(#paint2_linear_74_356)" stroke-width="0.478333"/>
<g clip-path="url(#clip0_74_356)">
<path d="M176.412 131.072C175.766 128.013 173.015 125.855 169.892 125.855H148.168C148.144 125.884 148.121 125.919 148.098 125.942C148.075 125.913 148.051 125.884 148.034 125.855H123.367C123.46 126.361 123.512 126.884 123.512 127.437C123.512 129.612 122.745 131.479 121.203 133.015C119.703 134.556 117.859 135.324 115.678 135.324C115.183 135.324 114.701 135.283 114.235 135.202V166.239H124.821V142.589C124.821 137.79 125.502 134.283 126.868 132.061C128.229 129.833 130.399 128.717 133.377 128.717C138.076 128.717 140.432 132.794 140.432 140.943V166.234H151.058V142.589C151.058 137.732 151.721 134.207 153.059 132.009C154.391 129.816 156.514 128.717 159.428 128.717C161.935 128.717 163.738 129.647 164.837 131.491C165.902 133.312 166.437 136.412 166.437 140.803V166.234H177.063V137.93C177.063 135.382 176.848 133.096 176.423 131.066L176.412 131.072Z" fill="white"/>
<path d="M119.47 123.488C118.429 122.447 117.167 121.923 115.689 121.923C114.212 121.923 112.99 122.447 111.949 123.488C110.908 124.529 110.385 125.768 110.385 127.193C110.385 128.699 110.908 129.967 111.949 131.009C112.985 132.05 114.253 132.573 115.724 132.573C117.196 132.573 118.452 132.05 119.47 131.009C120.511 129.967 121.034 128.705 121.034 127.228C121.034 125.75 120.511 124.5 119.47 123.482V123.488Z" fill="white"/>
</g>
<defs>
<linearGradient id="paint0_linear_74_356" x1="-6.55251" y1="195.25" x2="287.036" y2="195.564" gradientUnits="userSpaceOnUse">
<stop stop-color="white"/>
<stop offset="0.489583" stop-color="#B4B4B4"/>
<stop offset="1" stop-color="white"/>
</linearGradient>
<linearGradient id="paint1_linear_74_356" x1="143.5" y1="13.3046" x2="143.5" y2="287.5" gradientUnits="userSpaceOnUse">
<stop stop-color="white"/>
<stop offset="0.451599" stop-color="#5A61FF"/>
<stop offset="1"/>
</linearGradient>
<linearGradient id="paint2_linear_74_356" x1="225.295" y1="251.804" x2="54.1713" y2="27.0475" gradientUnits="userSpaceOnUse">
<stop stop-color="#4C52D7"/>
<stop offset="1" stop-color="#BEBEBE"/>
</linearGradient>
<clipPath id="clip0_74_356">
<rect width="66.6723" height="44.3108" fill="white" transform="translate(110.385 121.923)"/>
</clipPath>
</defs>
</svg>
