<svg width="261" height="57" viewBox="0 0 261 57" fill="none" xmlns="http://www.w3.org/2000/svg">
<g clip-path="url(#clip0_145_3540)">
<path d="M65.7909 21.8086C65.7456 21.8578 65.7037 21.9071 65.6584 21.9563C62.4475 25.5613 60.8438 30.0737 60.8438 35.483C60.8438 40.8923 62.4475 45.5911 65.6584 49.2735C68.8902 52.882 72.9832 54.6828 77.9303 54.6828C81.849 54.6828 85.5097 53.079 88.9158 49.8644V53.6452H97.2203V21.8086H65.7909ZM86.6009 44.0471C84.7148 46.1714 82.2395 47.2336 79.1785 47.2336C76.3127 47.2336 73.9385 46.1363 72.0524 43.9346C70.2151 41.761 69.2947 38.9438 69.2947 35.483C69.2947 32.2473 70.2395 29.5286 72.1256 27.3304C74.0361 25.1569 76.4103 24.0666 79.2517 24.0666C82.2639 24.0666 84.7148 25.1428 86.6009 27.2917C88.487 29.4934 89.4318 32.286 89.4318 35.6694C89.4318 39.0529 88.487 41.8489 86.6009 44.0471Z" fill="white"/>
<path d="M107.655 21.8086V53.6452H115.921V34.9273C115.921 28.0584 118.174 24.6223 122.681 24.6223C124.177 24.6223 125.708 25.192 127.276 26.328L129.515 21.8086H107.655Z" fill="white"/>
<path d="M138.541 21.8086C138.496 21.8578 138.454 21.9071 138.408 21.9563C135.197 25.5613 133.594 30.0737 133.594 35.483C133.594 40.8923 135.197 45.5911 138.408 49.2735C141.64 52.882 145.73 54.6828 150.68 54.6828C154.599 54.6828 158.26 53.079 161.666 49.8644V53.6452H169.97V21.8086H138.541ZM159.351 44.0471C157.465 46.1714 154.989 47.2336 151.928 47.2336C149.063 47.2336 146.688 46.1363 144.799 43.9346C142.965 41.761 142.045 38.9438 142.045 35.483C142.045 32.2473 142.989 29.5286 144.876 27.3304C146.786 25.1569 149.16 24.0666 152.002 24.0666C155.014 24.0666 157.465 25.1428 159.351 27.2917C161.237 29.4934 162.178 32.286 162.178 35.6694C162.178 39.0529 161.237 41.8489 159.351 44.0471Z" fill="white"/>
<path d="M201.236 36.1126C199.719 34.5088 196.766 32.7538 192.384 30.851C189.198 29.4934 187.604 28.1218 187.604 26.736C187.604 25.9447 187.876 25.2975 188.413 24.7911C188.954 24.2846 189.602 24.0314 190.362 24.0314C191.952 24.0314 193.287 25.1428 194.364 27.3656L201.201 23.6973C200.884 23.0185 200.542 22.3889 200.176 21.8086H181.304C180.335 23.4265 179.854 25.294 179.854 27.4043C179.854 29.7748 180.478 31.7162 181.726 33.2215C182.706 34.4103 184.397 35.5956 186.799 36.7808C187.653 37.2029 188.5 37.6108 189.334 38.0048C190.167 38.3987 190.997 38.8067 191.83 39.2287C193.984 40.5124 195.065 41.8982 195.065 43.3789C195.065 45.9499 193.667 47.2336 190.875 47.2336C189.48 47.2336 188.281 46.7658 187.273 45.8268C186.761 45.3555 186.015 44.2581 185.035 42.5277L177.979 45.8268C180.478 51.7319 184.728 54.6828 190.728 54.6828C194.232 54.6828 197.22 53.5714 199.695 51.3486C202.24 49.0027 203.516 46.0835 203.516 42.6016C203.516 39.8829 202.756 37.7199 201.236 36.1126Z" fill="white"/>
<path d="M210.938 21.809V53.6456H219.204V21.809H210.938ZM218.873 9.30222C217.82 8.24006 216.544 7.70898 215.052 7.70898C213.56 7.70898 212.319 8.24006 211.269 9.30222C210.213 10.3644 209.687 11.627 209.687 13.0831C209.687 14.6165 210.213 15.9143 211.269 16.9765C212.319 18.0387 213.595 18.5697 215.087 18.5697C216.579 18.5697 217.845 18.0387 218.873 16.9765C219.926 15.9143 220.452 14.6271 220.452 13.1218C220.452 11.6165 219.926 10.3398 218.873 9.30222Z" fill="white"/>
<path d="M255.794 21.8094H229.674V53.6461H237.943V36.1908C237.943 31.7417 238.519 28.6044 239.669 26.7756C240.844 24.9713 242.877 24.0674 245.767 24.0674C248.022 24.0674 249.658 24.7181 250.672 26.0159C251.69 27.3102 252.199 29.4063 252.199 32.2974V53.6461H260.465V31.5201C260.465 28.819 260.169 26.5118 259.58 24.5985C259.064 22.9349 257.523 21.8094 255.794 21.8094ZM237.943 0H229.674V18.6405H237.943V0Z" fill="white"/>
<path d="M51.5975 25.9201C51.092 23.5073 48.9444 21.8086 46.5004 21.8086H29.5219C29.5045 21.8332 29.4836 21.8578 29.4661 21.8789C29.4487 21.8578 29.4313 21.8332 29.4173 21.8086H10.1448C10.218 22.206 10.2564 22.621 10.2564 23.0536C10.2564 24.77 9.6567 26.2401 8.45391 27.45C7.2825 28.6634 5.84263 29.2683 4.13781 29.2683C3.75082 29.2683 3.3743 29.2367 3.01172 29.1734V53.6417H11.2779V35.0012C11.2779 31.2203 11.8113 28.4524 12.8781 26.7009C13.9414 24.9458 15.6393 24.0666 17.9647 24.0666C21.6393 24.0666 23.4766 27.2812 23.4766 33.7034V53.6417H31.7811V35.0012C31.7811 31.1711 32.3005 28.3926 33.343 26.6622C34.3819 24.9318 36.0449 24.0666 38.3215 24.0666C40.2808 24.0666 41.6893 24.7981 42.5469 26.2542C43.3801 27.6892 43.795 30.1335 43.795 33.5943V53.6417H52.0995V31.3293C52.0995 29.3211 51.9322 27.5168 51.5975 25.9201Z" fill="white"/>
<path d="M7.10169 19.9419C6.28937 19.1224 5.30274 18.7109 4.14876 18.7109C2.99477 18.7109 2.03603 19.1224 1.22371 19.9419C0.407903 20.7614 0 21.7391 0 22.8646C0 24.0499 0.407903 25.0522 1.22371 25.8752C2.03603 26.6947 3.02266 27.1062 4.17665 27.1062C5.33063 27.1062 6.31029 26.6947 7.10518 25.8752C7.9175 25.0558 8.3254 24.0604 8.3254 22.8963C8.3254 21.7321 7.9175 20.7438 7.10518 19.9419H7.10169Z" fill="white"/>
</g>
<defs>
<clipPath id="clip0_145_3540">
<rect width="260.465" height="56.9767" fill="white"/>
</clipPath>
</defs>
</svg>
