<svg width="203" height="43" viewBox="0 0 203 43" fill="none" xmlns="http://www.w3.org/2000/svg">
<path d="M51.2756 16.4595C51.2403 16.4966 51.2077 16.5338 51.1723 16.571C48.6698 19.2916 47.4199 22.6971 47.4199 26.7795C47.4199 30.8618 48.6698 34.408 51.1723 37.1871C53.6912 39.9104 56.8811 41.2694 60.7368 41.2694C63.7909 41.2694 66.6439 40.059 69.2986 37.633V40.4864H75.7709V16.4595H51.2756ZM67.4944 33.2427C66.0244 34.846 64.0952 35.6476 61.7095 35.6476C59.476 35.6476 57.6256 34.8194 56.1556 33.1578C54.7237 31.5174 54.0063 29.3913 54.0063 26.7795C54.0063 24.3375 54.7427 22.2857 56.2127 20.6268C57.7017 18.9864 59.5521 18.1635 61.7666 18.1635C64.1142 18.1635 66.0244 18.9758 67.4944 20.5976C68.9644 22.2592 69.7007 24.3667 69.7007 26.9202C69.7007 29.4736 68.9644 31.5838 67.4944 33.2427Z" fill="white"/>
<path d="M83.9038 16.4595V40.4864H90.3462V26.3601C90.3462 21.1762 92.1015 18.5829 95.6148 18.5829C96.7805 18.5829 97.9733 19.0129 99.1961 19.8703L100.94 16.4595H83.9038Z" fill="white"/>
<path d="M107.975 16.4595C107.939 16.4966 107.907 16.5338 107.872 16.571C105.369 19.2916 104.119 22.6971 104.119 26.7795C104.119 30.8618 105.369 34.408 107.872 37.1871C110.39 39.9104 113.578 41.2694 117.436 41.2694C120.49 41.2694 123.343 40.059 125.998 37.633V40.4864H132.47V16.4595H107.975ZM124.194 33.2427C122.724 34.846 120.794 35.6476 118.409 35.6476C116.175 35.6476 114.325 34.8194 112.852 33.1578C111.423 31.5174 110.706 29.3913 110.706 26.7795C110.706 24.3375 111.442 22.2857 112.912 20.6268C114.401 18.9864 116.251 18.1635 118.466 18.1635C120.813 18.1635 122.724 18.9758 124.194 20.5976C125.664 22.2592 126.397 24.3667 126.397 26.9202C126.397 29.4736 125.664 31.5838 124.194 33.2427Z" fill="white"/>
<path d="M156.838 27.2546C155.656 26.0442 153.355 24.7197 149.939 23.2837C147.456 22.2592 146.214 21.224 146.214 20.1782C146.214 19.581 146.426 19.0926 146.844 18.7103C147.266 18.3281 147.771 18.137 148.363 18.137C149.602 18.137 150.643 18.9758 151.483 20.6533L156.811 17.8848C156.564 17.3726 156.297 16.8974 156.012 16.4595H141.304C140.549 17.6805 140.174 19.0899 140.174 20.6825C140.174 22.4715 140.66 23.9367 141.633 25.0727C142.396 25.9699 143.714 26.8644 145.586 27.7589C146.252 28.0774 146.912 28.3853 147.562 28.6826C148.211 28.9799 148.858 29.2878 149.507 29.6063C151.186 30.5752 152.029 31.621 152.029 32.7384C152.029 34.6787 150.939 35.6476 148.763 35.6476C147.676 35.6476 146.741 35.2945 145.956 34.5858C145.556 34.2302 144.975 33.402 144.211 32.0961L138.712 34.5858C140.66 39.0424 143.972 41.2694 148.649 41.2694C151.379 41.2694 153.708 40.4306 155.637 38.7531C157.621 36.9827 158.615 34.7796 158.615 32.1518C158.615 30.1 158.023 28.4676 156.838 27.2546Z" fill="white"/>
<path d="M164.4 16.4594V40.4863H170.842V16.4594H164.4ZM170.584 7.02064C169.763 6.21904 168.769 5.81824 167.606 5.81824C166.443 5.81824 165.476 6.21904 164.658 7.02064C163.835 7.82225 163.424 8.77515 163.424 9.87404C163.424 11.0313 163.835 12.0108 164.658 12.8124C165.476 13.614 166.47 14.0148 167.633 14.0148C168.796 14.0148 169.782 13.614 170.584 12.8124C171.405 12.0108 171.815 11.0393 171.815 9.90324C171.815 8.76719 171.405 7.80367 170.584 7.02064Z" fill="white"/>
<path d="M199.359 16.4594H179.002V40.4864H185.447V27.313C185.447 23.9552 185.895 21.5876 186.792 20.2073C187.708 18.8457 189.292 18.1635 191.544 18.1635C193.302 18.1635 194.577 18.6546 195.367 19.634C196.161 20.6108 196.558 22.1928 196.558 24.3746V40.4864H203V23.788C203 21.7495 202.769 20.0083 202.31 18.5643C201.908 17.3088 200.707 16.4594 199.359 16.4594ZM185.447 0H179.002V14.0679H185.447V0Z" fill="white"/>
<path d="M40.2142 19.5624C39.8202 17.7415 38.1464 16.4595 36.2417 16.4595H23.009C22.9955 16.4781 22.9792 16.4966 22.9656 16.5126C22.952 16.4966 22.9384 16.4781 22.9275 16.4595H7.90699C7.96405 16.7594 7.99394 17.0726 7.99394 17.3991C7.99394 18.6944 7.52659 19.8039 6.58916 20.717C5.67619 21.6327 4.554 22.0893 3.2253 22.0893C2.9237 22.0893 2.63024 22.0654 2.34766 22.0176V40.4837H8.79007V26.4158C8.79007 23.5624 9.2058 21.4735 10.0373 20.1516C10.866 18.8271 12.1893 18.1635 14.0016 18.1635C16.8655 18.1635 18.2975 20.5896 18.2975 25.4364V40.4837H24.7698V26.4158C24.7698 23.5253 25.1746 21.4284 25.9871 20.1224C26.7968 18.8165 28.0929 18.1635 29.8672 18.1635C31.3942 18.1635 32.492 18.7156 33.1604 19.8145C33.8098 20.8975 34.1332 22.7423 34.1332 25.3541V40.4837H40.6055V23.6447C40.6055 22.1291 40.475 20.7674 40.2142 19.5624Z" fill="white"/>
<path d="M5.53488 15.05C4.90178 14.4315 4.13282 14.121 3.23344 14.121C2.33405 14.121 1.58683 14.4315 0.953728 15.05C0.317909 15.6684 0 16.4063 0 17.2557C0 18.1502 0.317909 18.9067 0.953728 19.5278C1.58683 20.1463 2.35579 20.4568 3.25517 20.4568C4.15456 20.4568 4.91808 20.1463 5.5376 19.5278C6.1707 18.9094 6.48861 18.1582 6.48861 17.2796C6.48861 16.401 6.1707 15.6552 5.5376 15.05H5.53488Z" fill="white"/>
</svg>
