<svg width="87" height="69" viewBox="0 0 87 69" fill="none" xmlns="http://www.w3.org/2000/svg">
<g clip-path="url(#clip0_680_582)">
<path d="M55.4093 5.03598C61.9927 5.03598 67.3926 33.0171 67.3926 67.4554H76.9348C76.9348 30.3452 67.3186 0.211655 55.4093 0.211655C48.678 0.211655 42.6124 9.26655 38.6919 23.3684C34.6975 9.26655 28.7058 0.211655 21.9005 0.211655C9.99121 0.211655 0.375 30.3452 0.375 67.4554H9.91724C9.91724 32.9429 15.2431 5.03598 21.9005 5.03598C28.4839 5.03598 33.8838 30.8647 33.8838 62.631H43.426C43.426 30.7905 48.8259 5.03598 55.4093 5.03598Z" fill="white"/>
<path d="M82.6307 64.7835H83.2965C83.8143 64.7835 84.3321 64.7835 84.3321 64.1155C84.3321 63.5959 83.8882 63.5217 83.4444 63.5217H82.6307V64.7835ZM82.039 63.0764H83.5184C84.406 63.0764 84.8498 63.4475 84.8498 64.1897C84.8498 64.9319 84.406 65.2288 83.8143 65.2288L84.9238 66.9359H84.2581L83.2225 65.2288H82.5568V67.0101H81.965V63.0764H82.039ZM83.2965 67.9007C84.8498 67.9007 86.0334 66.639 86.0334 65.0061C86.0334 63.3733 84.8498 62.1857 83.2965 62.1857C81.7431 62.1857 80.5595 63.4475 80.5595 65.0061C80.5595 66.639 81.7431 67.9007 83.2965 67.9007ZM83.2965 61.6662C85.1457 61.6662 86.6251 63.0764 86.6251 65.0061C86.6251 66.9359 85.0718 68.346 83.2965 68.346C81.4472 68.346 79.9678 66.9359 79.9678 65.0061C79.9678 63.1506 81.4472 61.6662 83.2965 61.6662Z" fill="white"/>
</g>
<defs>
<clipPath id="clip0_680_582">
<rect width="86.25" height="68.2086" fill="white" transform="translate(0.375 0.211655)"/>
</clipPath>
</defs>
</svg>
