<svg width="127" height="143" viewBox="0 0 127 143" fill="none" xmlns="http://www.w3.org/2000/svg">
<path fill-rule="evenodd" clip-rule="evenodd" d="M89.3678 140.475L89.0483 17.9445C88.2207 17.1191 86.6066 17.3684 85.9757 17.5522L81.7724 18.8515C81.2535 17.1488 80.5803 15.4968 79.7609 13.9159C76.7784 8.2368 72.4195 5.2338 67.1428 5.22563H67.1264C66.7741 5.22563 66.4259 5.25831 66.0735 5.28691L66.0326 5.291C65.88 5.10355 65.7215 4.92097 65.5574 4.74351C63.2632 2.29208 60.3135 1.09497 56.7821 1.19711C49.9732 1.39323 43.1931 6.30425 37.6911 15.0273C33.8196 21.1681 30.8823 28.8778 30.0424 34.8471L16.6337 38.9941C12.6885 40.232 12.5656 40.3546 12.0453 44.0685C11.6561 46.8795 1.32812 126.629 1.32812 126.629L87.8848 141.574L89.3678 140.475ZM61.0099 6.79863C59.8587 6.04277 58.5109 5.6914 56.9132 5.72408C46.4008 6.02643 37.2323 22.4224 34.893 33.3476L44.9629 30.2343L46.7614 29.6786C48.0805 22.7411 51.3907 15.5421 55.721 10.9089C57.2351 9.24865 59.0224 7.85858 61.0058 6.79863H61.0099ZM51.7389 28.1383L66.1924 23.6685C66.2374 19.9097 65.8277 14.3531 63.9432 10.4308C61.9358 11.2561 60.2479 12.7025 59.0353 13.9977C55.7865 17.4828 53.1359 22.7983 51.743 28.1383H51.7389ZM70.7193 22.2712L77.438 20.1916C76.3647 16.7106 73.8165 10.8762 68.6504 9.8956C70.2564 14.0344 70.6701 18.827 70.7193 22.2712Z" fill="white"/>
<path d="M108.762 27.0597C108.246 27.0188 98.2414 26.8636 98.2414 26.8636C98.2414 26.8636 89.8717 18.7493 89.0442 17.9199C88.7238 17.625 88.3178 17.4391 87.8848 17.3888V141.554L125.391 132.242C125.391 132.242 110.085 28.9105 109.987 28.2037C109.94 27.9035 109.793 27.6278 109.57 27.4204C109.347 27.2131 109.065 27.0861 108.762 27.0597Z" fill="white"/>
<path d="M67.0975 46.3402L62.7386 62.6177C62.7386 62.6177 57.8798 60.4073 52.1156 60.7709C43.6681 61.3021 43.578 66.6257 43.664 67.9618C44.1228 75.2344 63.2998 76.8278 64.3773 93.8775C65.2253 107.291 57.253 116.471 45.7656 117.191C31.98 118.061 24.3887 109.938 24.3887 109.938L27.3097 97.526C27.3097 97.526 34.9502 103.283 41.0625 102.895C45.061 102.645 46.4867 99.4014 46.3433 97.1052C45.7411 87.6141 30.1242 88.1697 29.1368 72.5705C28.3093 59.4349 36.9412 46.1359 55.9953 44.9347C63.3367 44.4689 67.0975 46.3443 67.0975 46.3443" fill="#AACD68"/>
</svg>
