<svg width="40" height="40" viewBox="0 0 40 40" fill="none" xmlns="http://www.w3.org/2000/svg">
<path fill-rule="evenodd" clip-rule="evenodd" d="M13.6 0H26.3998C30.3745 0 33.5999 3.22542 33.5999 7.20005C33.5999 9.98538 32.0159 12.4027 29.7002 13.5999C32.0159 14.7972 33.5999 17.2146 33.5999 20C33.5999 23.9746 30.3745 27.2 26.3998 27.2C24.1389 27.2 22.1204 26.1564 20.8001 24.5248V32.7999C20.8001 36.7746 17.5746 40 13.6 40C9.62535 40 6.3999 36.7746 6.3999 32.7999C6.3999 30.0146 7.98388 27.5972 10.2997 26.3999C7.98388 25.2027 6.3999 22.7853 6.3999 20C6.3999 17.2146 7.98387 14.7972 10.2996 13.5999C7.98387 12.4027 6.3999 9.98538 6.3999 7.20005C6.3999 3.22542 9.62535 0 13.6 0ZM7.9999 7.20005C7.9999 4.10908 10.509 1.6 13.6 1.6H19.1997V12.7999H13.6L13.5826 12.7999C10.4996 12.7905 7.9999 10.2852 7.9999 7.20005ZM19.2001 19.9238C19.1998 19.9492 19.1997 19.9745 19.1997 20C19.1997 20.0254 19.1998 20.0507 19.2001 20.0761V25.5998H13.6C10.509 25.6 7.9999 23.0909 7.9999 20C7.9999 16.9147 10.4997 14.4092 13.5828 14.3999L13.6 14.3999H19.1997L19.2001 19.9238ZM20.8001 20.067V19.9329C20.836 16.8804 23.3188 14.4122 26.3769 14.3999H26.3998C26.4055 14.3999 26.4113 14.3999 26.417 14.3999C29.5001 14.4092 31.9999 16.9147 31.9999 20C31.9999 23.0909 29.4908 25.6 26.3998 25.6C23.3312 25.6 20.8361 23.1271 20.8001 20.067ZM21.8753 14.3999C21.4803 14.7196 21.1197 15.0801 20.8001 15.4751V14.3999H21.8753ZM26.4172 12.7999C26.4114 12.7999 26.4056 12.7999 26.3998 12.7999C26.3911 12.7999 26.3823 12.7999 26.3736 12.7999H20.8001V1.6H26.3998C29.4908 1.6 31.9999 4.10908 31.9999 7.20005C31.9999 10.2852 29.5002 12.7905 26.4172 12.7999ZM13.6 27.1999C10.509 27.1999 7.9999 29.709 7.9999 32.7999C7.9999 35.8909 10.509 38.4 13.6 38.4C16.691 38.4 19.2001 35.8909 19.2001 32.7999V27.1999H13.6Z" fill="white"/>
</svg>
