<svg width="633" height="1152" viewBox="0 0 633 1152" fill="none" xmlns="http://www.w3.org/2000/svg">
<g filter="url(#filter0_f_145_3577)">
<path d="M53.5487 355.686C61.2638 348.983 72.7362 348.983 80.4513 355.686L119.221 389.366C123.418 393.012 128.915 394.798 134.453 394.316L185.615 389.856C195.796 388.968 205.078 395.711 207.38 405.669L218.948 455.705C220.2 461.121 223.598 465.797 228.362 468.662L272.375 495.126C281.133 500.393 284.678 511.303 280.688 520.712L260.636 567.992C258.466 573.11 258.466 578.89 260.636 584.008L280.688 631.288C284.678 640.697 281.133 651.607 272.375 656.874L228.362 683.338C223.598 686.203 220.2 690.879 218.948 696.295L207.38 746.331C205.078 756.289 195.796 763.032 185.615 762.145L134.453 757.684C128.915 757.202 123.418 758.988 119.221 762.634L80.4513 796.314C72.7362 803.017 61.2638 803.017 53.5487 796.314L14.7794 762.634C10.5825 758.988 5.08525 757.202 -0.453232 757.684L-51.6151 762.145C-61.7964 763.032 -71.0778 756.289 -73.3798 746.331L-84.948 696.295C-86.2003 690.879 -89.5977 686.203 -94.3623 683.338L-138.375 656.874C-147.133 651.607 -150.678 640.697 -146.688 631.288L-126.636 584.008C-124.466 578.89 -124.466 573.11 -126.636 567.992L-146.688 520.712C-150.678 511.303 -147.133 500.393 -138.375 495.126L-94.3622 468.662C-89.5977 465.797 -86.2003 461.121 -84.948 455.705L-73.3798 405.669C-71.0778 395.711 -61.7964 388.968 -51.6151 389.856L-0.453217 394.316C5.08525 394.798 10.5825 393.012 14.7794 389.366L53.5487 355.686Z" fill="#8CA6FF" fill-opacity="0.35"/>
</g>
<defs>
<filter id="filter0_f_145_3577" x="-498.319" y="0.658813" width="1130.64" height="1150.68" filterUnits="userSpaceOnUse" color-interpolation-filters="sRGB">
<feFlood flood-opacity="0" result="BackgroundImageFix"/>
<feBlend mode="normal" in="SourceGraphic" in2="BackgroundImageFix" result="shape"/>
<feGaussianBlur stdDeviation="175" result="effect1_foregroundBlur_145_3577"/>
</filter>
</defs>
</svg>
