<svg width="757" height="1022" viewBox="0 0 757 1022" fill="none" xmlns="http://www.w3.org/2000/svg">
<g filter="url(#filter0_f_145_4166)">
<path d="M177.549 225.686C185.264 218.983 196.736 218.983 204.451 225.686L243.221 259.366C247.418 263.012 252.915 264.798 258.453 264.316L309.615 259.856C319.796 258.968 329.078 265.711 331.38 275.669L342.948 325.705C344.2 331.121 347.598 335.797 352.362 338.662L396.375 365.126C405.133 370.393 408.678 381.303 404.688 390.712L384.636 437.992C382.466 443.11 382.466 448.89 384.636 454.008L404.688 501.288C408.678 510.697 405.133 521.607 396.375 526.874L352.362 553.338C347.598 556.203 344.2 560.879 342.948 566.295L331.38 616.331C329.078 626.289 319.796 633.032 309.615 632.145L258.453 627.684C252.915 627.202 247.418 628.988 243.221 632.634L204.451 666.314C196.736 673.017 185.264 673.017 177.549 666.314L138.779 632.634C134.582 628.988 129.085 627.202 123.547 627.684L72.3849 632.145C62.2036 633.032 52.9222 626.289 50.6202 616.331L39.052 566.295C37.7997 560.879 34.4023 556.203 29.6377 553.338L-14.3746 526.874C-23.1332 521.607 -26.6783 510.697 -22.688 501.288L-2.63636 454.008C-0.465698 448.89 -0.465698 443.11 -2.63637 437.992L-22.688 390.712C-26.6783 381.303 -23.1332 370.393 -14.3746 365.126L29.6378 338.662C34.4023 335.797 37.7997 331.121 39.052 325.705L50.6202 275.669C52.9222 265.711 62.2036 258.968 72.3849 259.856L123.547 264.316C129.085 264.798 134.582 263.012 138.779 259.366L177.549 225.686Z" fill="#C671BE" fill-opacity="0.3"/>
</g>
<defs>
<filter id="filter0_f_145_4166" x="-374.318" y="-129.341" width="1130.64" height="1150.68" filterUnits="userSpaceOnUse" color-interpolation-filters="sRGB">
<feFlood flood-opacity="0" result="BackgroundImageFix"/>
<feBlend mode="normal" in="SourceGraphic" in2="BackgroundImageFix" result="shape"/>
<feGaussianBlur stdDeviation="175" result="effect1_foregroundBlur_145_4166"/>
</filter>
</defs>
</svg>
