<svg width="772" height="1053" viewBox="0 0 772 1053" fill="none" xmlns="http://www.w3.org/2000/svg">
<g filter="url(#filter0_f_145_4423)">
<path d="M178.049 225.686C185.764 218.983 197.236 218.983 204.951 225.686L247.648 262.778C251.845 266.424 257.342 268.21 262.881 267.728L319.226 262.816C329.407 261.928 338.688 268.671 340.991 278.629L353.731 333.734C354.983 339.15 358.38 343.827 363.145 346.691L411.616 375.836C420.375 381.103 423.92 392.014 419.929 401.422L397.846 453.492C395.676 458.61 395.676 464.39 397.846 469.508L419.929 521.578C423.92 530.986 420.375 541.897 411.616 547.164L363.145 576.309C358.38 579.173 354.983 583.85 353.731 589.266L340.991 644.371C338.688 654.329 329.407 661.072 319.226 660.184L262.881 655.272C257.342 654.79 251.845 656.576 247.648 660.222L204.951 697.314C197.236 704.017 185.764 704.017 178.049 697.314L135.352 660.222C131.155 656.576 125.658 654.79 120.119 655.272L63.7742 660.184C53.5929 661.072 44.3116 654.329 42.0095 644.371L29.2694 589.266C28.0171 583.85 24.6197 579.173 19.8551 576.309L-28.616 547.164C-37.3746 541.897 -40.9197 530.986 -36.9294 521.578L-14.8464 469.508C-12.6757 464.39 -12.6757 458.61 -14.8464 453.492L-36.9294 401.422C-40.9197 392.014 -37.3746 381.103 -28.616 375.836L19.8551 346.691C24.6197 343.827 28.0171 339.15 29.2694 333.734L42.0095 278.629C44.3116 268.671 53.5929 261.928 63.7742 262.816L120.119 267.728C125.658 268.21 131.155 266.424 135.352 262.778L178.049 225.686Z" fill="#202358"/>
</g>
<defs>
<filter id="filter0_f_145_4423" x="-388.561" y="-129.341" width="1160.12" height="1181.68" filterUnits="userSpaceOnUse" color-interpolation-filters="sRGB">
<feFlood flood-opacity="0" result="BackgroundImageFix"/>
<feBlend mode="normal" in="SourceGraphic" in2="BackgroundImageFix" result="shape"/>
<feGaussianBlur stdDeviation="175" result="effect1_foregroundBlur_145_4423"/>
</filter>
</defs>
</svg>
