<svg width="633" height="997" viewBox="0 0 633 997" fill="none" xmlns="http://www.w3.org/2000/svg">
<g filter="url(#filter0_f_145_3576)">
<path d="M552.549 200.686C560.264 193.983 571.736 193.983 579.451 200.686L618.221 234.366C622.418 238.012 627.915 239.798 633.453 239.316L684.615 234.856C694.796 233.968 704.078 240.711 706.38 250.669L717.948 300.705C719.2 306.121 722.598 310.797 727.362 313.662L771.375 340.126C780.133 345.393 783.678 356.303 779.688 365.712L759.636 412.992C757.466 418.11 757.466 423.89 759.636 429.008L779.688 476.288C783.678 485.697 780.133 496.607 771.375 501.874L727.362 528.338C722.598 531.203 719.2 535.879 717.948 541.295L706.38 591.331C704.078 601.289 694.796 608.032 684.615 607.145L633.453 602.684C627.915 602.202 622.418 603.988 618.221 607.634L579.451 641.314C571.736 648.017 560.264 648.017 552.549 641.314L513.779 607.634C509.582 603.988 504.085 602.202 498.547 602.684L447.385 607.145C437.204 608.032 427.922 601.289 425.62 591.331L414.052 541.295C412.8 535.879 409.402 531.203 404.638 528.338L360.625 501.874C351.867 496.607 348.322 485.697 352.312 476.288L372.364 429.008C374.534 423.89 374.534 418.11 372.364 412.992L352.312 365.712C348.322 356.303 351.867 345.393 360.625 340.126L404.638 313.662C409.402 310.797 412.8 306.121 414.052 300.705L425.62 250.669C427.922 240.711 437.204 233.968 447.385 234.856L498.547 239.316C504.085 239.798 509.582 238.012 513.779 234.366L552.549 200.686Z" fill="#B871C6" fill-opacity="0.35"/>
</g>
<defs>
<filter id="filter0_f_145_3576" x="0.681152" y="-154.341" width="1130.64" height="1150.68" filterUnits="userSpaceOnUse" color-interpolation-filters="sRGB">
<feFlood flood-opacity="0" result="BackgroundImageFix"/>
<feBlend mode="normal" in="SourceGraphic" in2="BackgroundImageFix" result="shape"/>
<feGaussianBlur stdDeviation="175" result="effect1_foregroundBlur_145_3576"/>
</filter>
</defs>
</svg>
