<svg width="15" height="15" viewBox="0 0 15 15" fill="none" xmlns="http://www.w3.org/2000/svg">
<path d="M6.89138 0.551055C7.04173 -0.0927715 7.95827 -0.0927711 8.10862 0.551055L9.18834 5.17459C9.2424 5.40606 9.42307 5.58683 9.65451 5.64101L14.2755 6.72278C14.9189 6.8734 14.9189 7.78926 14.2755 7.93987L9.65451 9.02165C9.42307 9.07583 9.2424 9.2566 9.18834 9.48806L8.10862 14.1116C7.95827 14.7554 7.04173 14.7554 6.89138 14.1116L5.81166 9.48806C5.7576 9.2566 5.57693 9.07583 5.34549 9.02165L0.724519 7.93988C0.0811334 7.78926 0.0811312 6.8734 0.724516 6.72278L5.34549 5.64101C5.57693 5.58683 5.7576 5.40606 5.81166 5.17459L6.89138 0.551055Z" fill="#E8CF7A"/>
</svg>
