<svg width="716" height="1152" viewBox="0 0 716 1152" fill="none" xmlns="http://www.w3.org/2000/svg">
<g filter="url(#filter0_f_145_4165)">
<path d="M552.549 355.686C560.264 348.983 571.736 348.983 579.451 355.686L618.221 389.366C622.418 393.012 627.915 394.798 633.453 394.316L684.615 389.856C694.796 388.968 704.078 395.711 706.38 405.669L717.948 455.705C719.2 461.121 722.598 465.797 727.362 468.662L771.375 495.126C780.133 500.393 783.678 511.303 779.688 520.712L759.636 567.992C757.466 573.11 757.466 578.89 759.636 584.008L779.688 631.288C783.678 640.697 780.133 651.607 771.375 656.874L727.362 683.338C722.598 686.203 719.2 690.879 717.948 696.295L706.38 746.331C704.078 756.289 694.796 763.032 684.615 762.145L633.453 757.684C627.915 757.202 622.418 758.988 618.221 762.634L579.451 796.314C571.736 803.017 560.264 803.017 552.549 796.314L513.779 762.634C509.582 758.988 504.085 757.202 498.547 757.684L447.385 762.145C437.204 763.032 427.922 756.289 425.62 746.331L414.052 696.295C412.8 690.879 409.402 686.203 404.638 683.338L360.625 656.874C351.867 651.607 348.322 640.697 352.312 631.288L372.364 584.008C374.534 578.89 374.534 573.11 372.364 567.992L352.312 520.712C348.322 511.303 351.867 500.393 360.625 495.126L404.638 468.662C409.402 465.797 412.8 461.121 414.052 455.705L425.62 405.669C427.922 395.711 437.204 388.968 447.385 389.856L498.547 394.316C504.085 394.798 509.582 393.012 513.779 389.366L552.549 355.686Z" fill="#71C6A7" fill-opacity="0.26"/>
</g>
<defs>
<filter id="filter0_f_145_4165" x="0.681641" y="0.658813" width="1130.64" height="1150.68" filterUnits="userSpaceOnUse" color-interpolation-filters="sRGB">
<feFlood flood-opacity="0" result="BackgroundImageFix"/>
<feBlend mode="normal" in="SourceGraphic" in2="BackgroundImageFix" result="shape"/>
<feGaussianBlur stdDeviation="175" result="effect1_foregroundBlur_145_4165"/>
</filter>
</defs>
</svg>
