<svg width="231" height="23" viewBox="0 0 231 23" fill="none" xmlns="http://www.w3.org/2000/svg">
<g clip-path="url(#clip0_680_464)">
<path d="M0 0.0657143C0.298366 1.16637 0.894229 2.16921 1.72568 2.97005C2.55713 3.77089 3.59383 4.34051 4.72807 4.61971H12.1106L12.4889 4.76429V22.8883H17.0954V4.79057L17.5141 4.646H24.9034C26.0339 4.35929 27.0665 3.78715 27.8968 2.98747C28.727 2.18779 29.3254 1.18895 29.6315 0.092V0.046H0V0.0657143ZM161.166 0.0394286H156.573V22.9409H177.607C178.603 22.5656 179.49 21.9585 180.189 21.1726C180.889 20.3867 181.379 19.446 181.619 18.4329H161.153L161.166 0.0394286ZM125.821 4.54743C128.266 3.89029 130.319 2.03714 130.812 0.0262857L105.078 0.0657143V13.57H126.131V18.3211H109.61C108.351 18.6388 107.175 19.2131 106.161 20.0061C105.146 20.7992 104.317 21.7928 103.727 22.9211H130.67V9.07514H109.624V4.54743H125.821ZM204.286 22.9277H208.852V13.7146H225.455V22.9277H230.014V9.11457L204.286 9.08829V22.9277ZM57.6487 4.6H75.2101C76.3605 4.33074 77.4129 3.75941 78.2526 2.94828C79.0923 2.13714 79.687 1.11734 79.9719 0L52.8868 0C53.1745 1.11605 53.7702 2.13442 54.6094 2.94512C55.4486 3.75583 56.4995 4.32805 57.6487 4.6ZM57.6487 13.6489H75.2101C76.3599 13.3782 77.4116 12.8065 78.251 11.9956C79.0904 11.1846 79.6856 10.1655 79.9719 9.04886H52.8868C53.1759 10.1643 53.772 11.1819 54.611 11.9924C55.45 12.8029 56.5002 13.3756 57.6487 13.6489ZM57.6487 22.9409H75.2101C76.3599 22.6702 77.4116 22.0985 78.251 21.2876C79.0904 20.4766 79.6856 19.4576 79.9719 18.3409H52.8868C53.1752 19.4566 53.7711 20.4746 54.6102 21.2852C55.4493 22.0958 56.4999 22.6682 57.6487 22.9409ZM208.346 4.61314H225.907C227.059 4.34427 228.112 3.77318 228.953 2.96209C229.794 2.15099 230.39 1.13098 230.676 0.0131429H203.584C203.87 1.12983 204.465 2.14892 205.305 2.95984C206.144 3.77075 207.196 4.34253 208.346 4.61314Z" fill="white"/>
</g>
<defs>
<clipPath id="clip0_680_464">
<rect width="231" height="23" fill="white"/>
</clipPath>
</defs>
</svg>
