<svg width="171" height="55" viewBox="0 0 171 55" fill="none" xmlns="http://www.w3.org/2000/svg">
<g clip-path="url(#clip0_680_473)">
<path d="M111.414 0C99.2882 0 88.4011 6.27647 88.4011 17.7941C88.4011 31.0588 107.633 31.9647 107.633 38.5647C107.633 41.3471 104.373 43.8706 98.8971 43.8706C91.074 43.8706 85.2066 40.3765 85.2066 40.3765L82.7293 52.0235C82.7293 52.0235 89.4442 55 98.4407 55C111.74 55 122.171 48.4647 122.171 36.6882C122.171 22.7118 102.874 21.8059 102.874 15.6588C102.874 13.4588 105.547 11.0647 111.023 11.0647C117.216 11.0647 122.301 13.5882 122.301 13.5882L124.779 2.32941C124.713 2.32941 119.172 0 111.414 0ZM0.325963 0.841176L0 2.52353C0 2.52353 5.08502 3.42941 9.71369 5.30588C15.6462 7.44118 16.0374 8.67059 17.0804 12.4882L27.9676 54.0941H42.5707L64.9318 0.841176H50.3938L35.9863 37.0765L30.1189 6.34118C29.5974 2.84706 26.8593 0.841176 23.4693 0.841176H0.325963ZM70.7991 0.841176L59.3904 54.0941H73.2764L84.6199 0.841176H70.7991ZM148.117 0.841176C144.793 0.841176 143.032 2.58824 141.729 5.69412L121.388 54.0941H135.926L138.73 46.0059H156.462L158.157 54.0941H171L159.852 0.841176H148.117ZM150.008 15.2706L154.311 35.2647H142.772L150.008 15.2706Z" fill="white"/>
</g>
<defs>
<clipPath id="clip0_680_473">
<rect width="171" height="55" fill="white"/>
</clipPath>
</defs>
</svg>
