<svg width="124" height="124" viewBox="0 0 124 124" fill="none" xmlns="http://www.w3.org/2000/svg">
<g clip-path="url(#clip0_680_395)">
<path d="M62.0451 49.7591C80.7203 63.9886 112.495 98.8995 102.847 108.71C91.8723 118.255 77.6225 124 62.0451 124C46.4676 124 32.0408 118.255 21.2428 108.71C11.5069 98.8111 43.3698 63.9002 61.8681 49.8475C61.8681 49.7591 62.0451 49.7591 62.0451 49.7591Z" fill="white"/>
<path d="M94.3492 9.10335C84.8788 3.35852 74.5233 0 62.0437 0C49.564 0 39.1201 3.35852 29.6497 9.10335C29.4727 9.10335 29.4727 9.28011 29.4727 9.3685C29.4727 9.45688 29.6497 9.54526 29.7382 9.54526C41.7753 6.8938 60.008 17.2345 61.7782 18.3835H62.0437C63.7253 17.3229 81.958 6.98218 94.0836 9.54526C94.2607 9.54526 94.3492 9.54526 94.3492 9.3685C94.3492 9.19173 94.5262 9.10335 94.3492 9.10335Z" fill="white"/>
<path d="M18.5867 17.7648C18.4097 17.7648 18.4097 17.9415 18.3212 17.9415C6.99215 29.166 0 44.8097 0 61.9558C0 76.0085 4.77944 89.0891 12.6567 99.5182C12.6567 99.6949 12.8337 99.6949 12.9222 99.6949C13.0992 99.6949 13.0992 99.5182 12.9222 99.4298C8.23126 84.5816 32.4825 49.2288 44.9622 34.469L45.1392 34.2922C45.1392 34.1154 45.1392 34.1154 44.9622 34.1154C26.0214 15.2901 19.6488 17.3229 18.5867 17.7648Z" fill="white"/>
<path d="M79.0383 33.9387L78.8613 34.1155C78.8613 34.1155 78.8613 34.2922 79.0383 34.2922C91.6065 49.1404 115.681 84.4932 111.078 99.1646V99.4298C111.255 99.4298 111.344 99.4298 111.344 99.253C119.221 88.9123 124.001 75.7434 124.001 61.6907C124.001 44.5445 117.008 28.9893 105.591 17.6764C105.414 17.4996 105.414 17.4996 105.325 17.4996C104.352 17.3229 98.0676 15.2901 79.0383 33.9387Z" fill="white"/>
</g>
<defs>
<clipPath id="clip0_680_395">
<rect width="124" height="124" fill="white"/>
</clipPath>
</defs>
</svg>
